<svg width="20" height="18" viewBox="0 0 20 18" fill="none" xmlns="http://www.w3.org/2000/svg">
<path d="M20 1.50002C20 1.95835 19.625 2.33335 19.1667 2.33335H0.833333C0.375 2.33335 0 1.95835 0 1.50002C0 1.04169 0.375 0.666687 0.833333 0.666687H19.1667C19.625 0.666687 20 1.04169 20 1.50002ZM12.5 15.6667H7.5C7.04167 15.6667 6.66667 16.0417 6.66667 16.5C6.66667 16.9584 7.04167 17.3334 7.5 17.3334H12.5C12.9583 17.3334 13.3333 16.9584 13.3333 16.5C13.3333 16.0417 12.9583 15.6667 12.5 15.6667ZM15.8333 8.16669H4.16667C3.70833 8.16669 3.33333 8.54169 3.33333 9.00002C3.33333 9.45835 3.70833 9.83335 4.16667 9.83335H15.8333C16.2917 9.83335 16.6667 9.45835 16.6667 9.00002C16.6667 8.54169 16.2917 8.16669 15.8333 8.16669Z" fill="#888888"/>
</svg>
