<svg width="20" height="18" viewBox="0 0 20 18" fill="none" xmlns="http://www.w3.org/2000/svg">
<path d="M20 1.49984C20 1.95817 19.625 2.33317 19.1667 2.33317H0.833333C0.375 2.33317 0 1.95817 0 1.49984C0 1.0415 0.375 0.666504 0.833333 0.666504H19.1667C19.625 0.666504 20 1.0415 20 1.49984ZM12.5 15.6665H7.5C7.04167 15.6665 6.66667 16.0415 6.66667 16.4998C6.66667 16.9582 7.04167 17.3332 7.5 17.3332H12.5C12.9583 17.3332 13.3333 16.9582 13.3333 16.4998C13.3333 16.0415 12.9583 15.6665 12.5 15.6665ZM15.8333 8.1665H4.16667C3.70833 8.1665 3.33333 8.5415 3.33333 8.99984C3.33333 9.45817 3.70833 9.83317 4.16667 9.83317H15.8333C16.2917 9.83317 16.6667 9.45817 16.6667 8.99984C16.6667 8.5415 16.2917 8.1665 15.8333 8.1665Z" fill="#B0B0B0"/>
</svg>
