<svg width="200" height="44" viewBox="0 0 200 44" fill="none" xmlns="http://www.w3.org/2000/svg">
<mask id="path-1-inside-1_1283_11568" fill="white">
<path d="M0 0H200V44H0V0Z"/>
</mask>
<path d="M200 43H0V45H200V43Z" fill="#0C54FF" mask="url(#path-1-inside-1_1283_11568)"/>
<path d="M18.876 28.1155C18.922 27.702 18.945 27.4952 19.0075 27.302C19.063 27.1305 19.1414 26.9674 19.2406 26.8169C19.3525 26.6474 19.4995 26.5003 19.7937 26.2061L33 12.9998C34.1046 11.8952 35.8955 11.8952 37 12.9998C38.1046 14.1044 38.1046 15.8952 37 16.9998L23.7937 30.2061C23.4995 30.5003 23.3525 30.6474 23.1829 30.7592C23.0324 30.8584 22.8693 30.9368 22.6978 30.9923C22.5046 31.0549 22.2979 31.0778 21.8844 31.1238L18.5 31.4998L18.876 28.1155Z" stroke="#0C54FF" stroke-width="2" stroke-linecap="round" stroke-linejoin="round"/>
<path d="M48.56 22.24C48.56 21.5467 48.6827 20.8693 48.928 20.208C49.1733 19.536 49.5307 18.928 50 18.384C50.48 17.8293 51.0613 17.392 51.744 17.072C52.4267 16.7413 53.2 16.576 54.064 16.576C55.088 16.576 55.9733 16.8107 56.72 17.28C57.4667 17.7387 58.0213 18.3307 58.384 19.056L56.976 20C56.7627 19.5413 56.4907 19.1787 56.16 18.912C55.84 18.6453 55.488 18.4587 55.104 18.352C54.7307 18.2453 54.3627 18.192 54 18.192C53.4027 18.192 52.88 18.3147 52.432 18.56C51.984 18.7947 51.6053 19.1093 51.296 19.504C50.9973 19.8987 50.768 20.3413 50.608 20.832C50.4587 21.3227 50.384 21.8133 50.384 22.304C50.384 22.848 50.4747 23.376 50.656 23.888C50.8373 24.3893 51.088 24.8373 51.408 25.232C51.7387 25.616 52.128 25.92 52.576 26.144C53.024 26.368 53.5147 26.48 54.048 26.48C54.4107 26.48 54.7893 26.416 55.184 26.288C55.5787 26.16 55.9413 25.9627 56.272 25.696C56.6133 25.4187 56.88 25.056 57.072 24.608L58.56 25.456C58.3253 26.0213 57.9573 26.5013 57.456 26.896C56.9653 27.2907 56.4107 27.5893 55.792 27.792C55.184 27.9947 54.5813 28.096 53.984 28.096C53.184 28.096 52.4533 27.9307 51.792 27.6C51.1307 27.2587 50.56 26.8107 50.08 26.256C49.6 25.6907 49.2267 25.0613 48.96 24.368C48.6933 23.664 48.56 22.9547 48.56 22.24ZM67.4975 28H65.7375V23.312C65.7375 22.5547 65.5988 21.9893 65.3215 21.616C65.0442 21.2427 64.6548 21.056 64.1535 21.056C63.8442 21.056 63.5242 21.1413 63.1935 21.312C62.8628 21.4827 62.5695 21.7173 62.3135 22.016C62.0575 22.304 61.8708 22.64 61.7535 23.024V28H59.9935V16.32H61.7535V21.312C62.0735 20.7467 62.5108 20.304 63.0655 19.984C63.6202 19.6533 64.2175 19.488 64.8575 19.488C65.3802 19.488 65.8122 19.5787 66.1535 19.76C66.4948 19.9413 66.7615 20.192 66.9535 20.512C67.1562 20.8213 67.2948 21.184 67.3695 21.6C67.4548 22.0053 67.4975 22.4373 67.4975 22.896V28ZM68.9324 25.552C68.9324 25.0187 69.0817 24.5547 69.3804 24.16C69.6897 23.7547 70.111 23.4453 70.6444 23.232C71.1777 23.008 71.7964 22.896 72.5004 22.896C72.8737 22.896 73.2524 22.9227 73.6364 22.976C74.031 23.0293 74.3777 23.1147 74.6764 23.232V22.704C74.6764 22.1173 74.5004 21.6587 74.1484 21.328C73.7964 20.9973 73.2897 20.832 72.6284 20.832C72.159 20.832 71.7164 20.9173 71.3004 21.088C70.8844 21.248 70.4417 21.4773 69.9724 21.776L69.3804 20.592C69.935 20.2187 70.4897 19.9413 71.0444 19.76C71.6097 19.5787 72.2017 19.488 72.8204 19.488C73.9404 19.488 74.8204 19.7867 75.4604 20.384C76.111 20.9707 76.4364 21.808 76.4364 22.896V26.016C76.4364 26.2187 76.4684 26.3627 76.5324 26.448C76.607 26.5333 76.7297 26.5813 76.9004 26.592V28C76.7404 28.032 76.5964 28.0533 76.4684 28.064C76.3404 28.0747 76.2337 28.08 76.1484 28.08C75.775 28.08 75.4924 27.9893 75.3004 27.808C75.1084 27.6267 74.9964 27.4133 74.9644 27.168L74.9164 26.688C74.5537 27.1573 74.0897 27.52 73.5244 27.776C72.959 28.032 72.3884 28.16 71.8124 28.16C71.2577 28.16 70.7617 28.048 70.3244 27.824C69.887 27.5893 69.5457 27.2747 69.3004 26.88C69.055 26.4853 68.9324 26.0427 68.9324 25.552ZM74.2604 26.064C74.3884 25.9253 74.4897 25.7867 74.5644 25.648C74.639 25.5093 74.6764 25.3867 74.6764 25.28V24.32C74.3777 24.2027 74.063 24.1173 73.7324 24.064C73.4017 24 73.0764 23.968 72.7564 23.968C72.1164 23.968 71.5937 24.096 71.1884 24.352C70.7937 24.608 70.5964 24.96 70.5964 25.408C70.5964 25.6533 70.6604 25.888 70.7884 26.112C70.927 26.336 71.119 26.5173 71.3644 26.656C71.6204 26.7947 71.935 26.864 72.3084 26.864C72.6924 26.864 73.0604 26.7893 73.4124 26.64C73.7644 26.4907 74.047 26.2987 74.2604 26.064ZM86.0756 28H84.3156V23.312C84.3156 22.5333 84.1876 21.9627 83.9316 21.6C83.6863 21.2373 83.3183 21.056 82.8276 21.056C82.4863 21.056 82.145 21.1413 81.8036 21.312C81.473 21.4827 81.1743 21.7173 80.9076 22.016C80.641 22.304 80.449 22.64 80.3316 23.024V28H78.5716V19.632H80.1716V21.312C80.385 20.9387 80.6623 20.6187 81.0036 20.352C81.3556 20.0747 81.7503 19.8613 82.1876 19.712C82.625 19.5627 83.089 19.488 83.5796 19.488C84.081 19.488 84.4916 19.5787 84.8116 19.76C85.1423 19.9413 85.3983 20.192 85.5796 20.512C85.7716 20.8213 85.8996 21.184 85.9636 21.6C86.0383 22.0053 86.0756 22.4373 86.0756 22.896V28ZM91.4305 28.08C90.8652 28.08 90.3478 27.968 89.8785 27.744C89.4092 27.5093 89.0038 27.1947 88.6625 26.8C88.3318 26.4053 88.0705 25.952 87.8785 25.44C87.6972 24.928 87.6065 24.3893 87.6065 23.824C87.6065 23.2267 87.7025 22.6667 87.8945 22.144C88.0865 21.6213 88.3532 21.1627 88.6945 20.768C89.0465 20.3627 89.4572 20.048 89.9265 19.824C90.3958 19.6 90.9185 19.488 91.4945 19.488C92.1665 19.488 92.7532 19.648 93.2545 19.968C93.7665 20.288 94.1878 20.704 94.5185 21.216V19.632H96.0705V27.76C96.0705 28.5707 95.8732 29.2587 95.4785 29.824C95.0945 30.3893 94.5665 30.8213 93.8945 31.12C93.2225 31.4187 92.4652 31.568 91.6225 31.568C90.6945 31.568 89.9265 31.408 89.3185 31.088C88.7105 30.768 88.1932 30.3307 87.7665 29.776L88.7585 28.848C89.0785 29.296 89.4892 29.6373 89.9905 29.872C90.5025 30.1067 91.0465 30.224 91.6225 30.224C92.1025 30.224 92.5452 30.1333 92.9505 29.952C93.3665 29.7813 93.6972 29.5093 93.9425 29.136C94.1878 28.7733 94.3105 28.3147 94.3105 27.76V26.48C94.0118 26.9813 93.6012 27.376 93.0785 27.664C92.5558 27.9413 92.0065 28.08 91.4305 28.08ZM92.0065 26.656C92.2732 26.656 92.5292 26.6133 92.7745 26.528C93.0198 26.432 93.2438 26.3093 93.4465 26.16C93.6598 26 93.8412 25.824 93.9905 25.632C94.1398 25.4293 94.2465 25.216 94.3105 24.992V22.8C94.1718 22.4373 93.9745 22.1227 93.7185 21.856C93.4625 21.5787 93.1745 21.3653 92.8545 21.216C92.5345 21.0667 92.2092 20.992 91.8785 20.992C91.4945 20.992 91.1478 21.0773 90.8385 21.248C90.5398 21.408 90.2838 21.6267 90.0705 21.904C89.8572 22.1707 89.6918 22.4747 89.5745 22.816C89.4572 23.1573 89.3985 23.5093 89.3985 23.872C89.3985 24.256 89.4625 24.6133 89.5905 24.944C89.7292 25.2747 89.9158 25.5733 90.1505 25.84C90.3852 26.096 90.6625 26.2987 90.9825 26.448C91.3025 26.5867 91.6438 26.656 92.0065 26.656ZM101.973 28.16C101.322 28.16 100.73 28.048 100.197 27.824C99.6743 27.5893 99.221 27.2747 98.837 26.88C98.453 26.4747 98.1543 26.016 97.941 25.504C97.7383 24.9813 97.637 24.4267 97.637 23.84C97.637 23.0507 97.8183 22.3307 98.181 21.68C98.5437 21.0187 99.0503 20.4907 99.701 20.096C100.352 19.6907 101.114 19.488 101.989 19.488C102.864 19.488 103.616 19.6907 104.245 20.096C104.885 20.4907 105.381 21.0133 105.733 21.664C106.085 22.3147 106.261 23.0133 106.261 23.76C106.261 23.888 106.256 24.0107 106.245 24.128C106.234 24.2347 106.224 24.3253 106.213 24.4H99.509C99.541 24.8907 99.6743 25.3227 99.909 25.696C100.154 26.0587 100.464 26.3467 100.837 26.56C101.21 26.7627 101.61 26.864 102.037 26.864C102.506 26.864 102.949 26.7467 103.365 26.512C103.792 26.2773 104.08 25.968 104.229 25.584L105.733 26.016C105.552 26.4213 105.274 26.7893 104.901 27.12C104.538 27.44 104.106 27.696 103.605 27.888C103.104 28.0693 102.56 28.16 101.973 28.16ZM99.461 23.232H104.517C104.485 22.752 104.346 22.3307 104.101 21.968C103.866 21.5947 103.562 21.3067 103.189 21.104C102.826 20.8907 102.421 20.784 101.973 20.784C101.536 20.784 101.13 20.8907 100.757 21.104C100.394 21.3067 100.096 21.5947 99.861 21.968C99.6263 22.3307 99.493 22.752 99.461 23.232ZM111.874 28V16.64H116.642C117.154 16.64 117.623 16.7467 118.05 16.96C118.476 17.1733 118.85 17.456 119.17 17.808C119.49 18.16 119.735 18.5547 119.906 18.992C120.076 19.4293 120.162 19.8773 120.162 20.336C120.162 20.9653 120.018 21.568 119.73 22.144C119.452 22.7093 119.052 23.168 118.53 23.52C118.018 23.872 117.42 24.048 116.738 24.048H113.666V28H111.874ZM113.666 22.464H116.626C116.967 22.464 117.266 22.3733 117.522 22.192C117.778 22 117.975 21.744 118.114 21.424C118.263 21.104 118.338 20.7413 118.338 20.336C118.338 19.92 118.252 19.552 118.082 19.232C117.911 18.912 117.687 18.6667 117.41 18.496C117.143 18.3147 116.85 18.224 116.53 18.224H113.666V22.464ZM120.917 25.552C120.917 25.0187 121.066 24.5547 121.365 24.16C121.674 23.7547 122.095 23.4453 122.629 23.232C123.162 23.008 123.781 22.896 124.485 22.896C124.858 22.896 125.237 22.9227 125.621 22.976C126.015 23.0293 126.362 23.1147 126.661 23.232V22.704C126.661 22.1173 126.485 21.6587 126.133 21.328C125.781 20.9973 125.274 20.832 124.613 20.832C124.143 20.832 123.701 20.9173 123.285 21.088C122.869 21.248 122.426 21.4773 121.957 21.776L121.365 20.592C121.919 20.2187 122.474 19.9413 123.029 19.76C123.594 19.5787 124.186 19.488 124.805 19.488C125.925 19.488 126.805 19.7867 127.445 20.384C128.095 20.9707 128.421 21.808 128.421 22.896V26.016C128.421 26.2187 128.453 26.3627 128.517 26.448C128.591 26.5333 128.714 26.5813 128.885 26.592V28C128.725 28.032 128.581 28.0533 128.453 28.064C128.325 28.0747 128.218 28.08 128.133 28.08C127.759 28.08 127.477 27.9893 127.285 27.808C127.093 27.6267 126.981 27.4133 126.949 27.168L126.901 26.688C126.538 27.1573 126.074 27.52 125.509 27.776C124.943 28.032 124.373 28.16 123.797 28.16C123.242 28.16 122.746 28.048 122.309 27.824C121.871 27.5893 121.53 27.2747 121.285 26.88C121.039 26.4853 120.917 26.0427 120.917 25.552ZM126.245 26.064C126.373 25.9253 126.474 25.7867 126.549 25.648C126.623 25.5093 126.661 25.3867 126.661 25.28V24.32C126.362 24.2027 126.047 24.1173 125.717 24.064C125.386 24 125.061 23.968 124.741 23.968C124.101 23.968 123.578 24.096 123.173 24.352C122.778 24.608 122.581 24.96 122.581 25.408C122.581 25.6533 122.645 25.888 122.773 26.112C122.911 26.336 123.103 26.5173 123.349 26.656C123.605 26.7947 123.919 26.864 124.293 26.864C124.677 26.864 125.045 26.7893 125.397 26.64C125.749 26.4907 126.031 26.2987 126.245 26.064ZM133.532 28.16C132.828 28.16 132.161 28.048 131.532 27.824C130.903 27.5893 130.364 27.2427 129.916 26.784L130.572 25.6C131.052 26.0267 131.532 26.336 132.012 26.528C132.503 26.72 132.988 26.816 133.468 26.816C133.959 26.816 134.359 26.7253 134.668 26.544C134.977 26.352 135.132 26.0747 135.132 25.712C135.132 25.4453 135.052 25.248 134.892 25.12C134.732 24.992 134.497 24.88 134.188 24.784C133.889 24.688 133.527 24.5813 133.1 24.464C132.503 24.2827 132.001 24.096 131.596 23.904C131.191 23.7013 130.887 23.456 130.684 23.168C130.481 22.88 130.38 22.512 130.38 22.064C130.38 21.52 130.519 21.056 130.796 20.672C131.073 20.288 131.457 19.9947 131.948 19.792C132.449 19.5893 133.025 19.488 133.676 19.488C134.284 19.488 134.844 19.584 135.356 19.776C135.879 19.9573 136.337 20.2453 136.732 20.64L135.98 21.808C135.607 21.4667 135.223 21.216 134.828 21.056C134.444 20.896 134.028 20.816 133.58 20.816C133.324 20.816 133.079 20.848 132.844 20.912C132.609 20.9653 132.412 21.072 132.252 21.232C132.103 21.3813 132.028 21.5947 132.028 21.872C132.028 22.096 132.092 22.2773 132.22 22.416C132.348 22.5547 132.54 22.672 132.796 22.768C133.052 22.864 133.367 22.9707 133.74 23.088C134.391 23.28 134.945 23.472 135.404 23.664C135.863 23.8453 136.215 24.0853 136.46 24.384C136.716 24.672 136.844 25.072 136.844 25.584C136.844 26.3947 136.54 27.0293 135.932 27.488C135.335 27.936 134.535 28.16 133.532 28.16ZM141.391 28.16C140.687 28.16 140.021 28.048 139.391 27.824C138.762 27.5893 138.223 27.2427 137.775 26.784L138.431 25.6C138.911 26.0267 139.391 26.336 139.871 26.528C140.362 26.72 140.847 26.816 141.327 26.816C141.818 26.816 142.218 26.7253 142.527 26.544C142.837 26.352 142.991 26.0747 142.991 25.712C142.991 25.4453 142.911 25.248 142.751 25.12C142.591 24.992 142.357 24.88 142.047 24.784C141.749 24.688 141.386 24.5813 140.959 24.464C140.362 24.2827 139.861 24.096 139.455 23.904C139.05 23.7013 138.746 23.456 138.543 23.168C138.341 22.88 138.239 22.512 138.239 22.064C138.239 21.52 138.378 21.056 138.655 20.672C138.933 20.288 139.317 19.9947 139.807 19.792C140.309 19.5893 140.885 19.488 141.535 19.488C142.143 19.488 142.703 19.584 143.215 19.776C143.738 19.9573 144.197 20.2453 144.591 20.64L143.839 21.808C143.466 21.4667 143.082 21.216 142.687 21.056C142.303 20.896 141.887 20.816 141.439 20.816C141.183 20.816 140.938 20.848 140.703 20.912C140.469 20.9653 140.271 21.072 140.111 21.232C139.962 21.3813 139.887 21.5947 139.887 21.872C139.887 22.096 139.951 22.2773 140.079 22.416C140.207 22.5547 140.399 22.672 140.655 22.768C140.911 22.864 141.226 22.9707 141.599 23.088C142.25 23.28 142.805 23.472 143.263 23.664C143.722 23.8453 144.074 24.0853 144.319 24.384C144.575 24.672 144.703 25.072 144.703 25.584C144.703 26.3947 144.399 27.0293 143.791 27.488C143.194 27.936 142.394 28.16 141.391 28.16ZM156.535 19.632H158.215L154.695 28H153.191L151.687 24.224L150.183 28H148.679L145.143 19.632H146.823L149.511 26.288L150.695 23.2L149.255 19.648H150.743L151.687 22.256L152.615 19.648H154.103L152.679 23.2L153.863 26.288L156.535 19.632ZM162.863 28.16C162.202 28.16 161.61 28.048 161.087 27.824C160.564 27.5893 160.111 27.2693 159.727 26.864C159.354 26.4587 159.066 26 158.863 25.488C158.66 24.9653 158.559 24.4107 158.559 23.824C158.559 23.2373 158.66 22.6827 158.863 22.16C159.066 21.6373 159.354 21.1787 159.727 20.784C160.111 20.3787 160.564 20.064 161.087 19.84C161.62 19.6053 162.212 19.488 162.863 19.488C163.514 19.488 164.1 19.6053 164.623 19.84C165.156 20.064 165.61 20.3787 165.983 20.784C166.367 21.1787 166.66 21.6373 166.863 22.16C167.066 22.6827 167.167 23.2373 167.167 23.824C167.167 24.4107 167.066 24.9653 166.863 25.488C166.66 26 166.367 26.4587 165.983 26.864C165.61 27.2693 165.156 27.5893 164.623 27.824C164.1 28.048 163.514 28.16 162.863 28.16ZM160.367 23.84C160.367 24.3733 160.479 24.8533 160.703 25.28C160.927 25.7067 161.226 26.0427 161.599 26.288C161.972 26.5333 162.394 26.656 162.863 26.656C163.322 26.656 163.738 26.5333 164.111 26.288C164.495 26.032 164.799 25.6907 165.023 25.264C165.247 24.8267 165.359 24.3467 165.359 23.824C165.359 23.2907 165.247 22.8107 165.023 22.384C164.799 21.9573 164.495 21.6213 164.111 21.376C163.738 21.12 163.322 20.992 162.863 20.992C162.394 20.992 161.972 21.12 161.599 21.376C161.226 21.632 160.927 21.9733 160.703 22.4C160.479 22.816 160.367 23.296 160.367 23.84ZM173.432 21.152C172.749 21.1627 172.141 21.3173 171.608 21.616C171.085 21.9147 170.712 22.336 170.488 22.88V28H168.728V19.632H170.36V21.504C170.648 20.928 171.027 20.4693 171.496 20.128C171.965 19.776 172.461 19.584 172.984 19.552C173.091 19.552 173.176 19.552 173.24 19.552C173.315 19.552 173.379 19.5573 173.432 19.568V21.152ZM174.059 23.824C174.059 23.024 174.219 22.2987 174.539 21.648C174.87 20.9867 175.318 20.464 175.883 20.08C176.449 19.6853 177.099 19.488 177.835 19.488C178.475 19.488 179.051 19.6533 179.563 19.984C180.086 20.3147 180.491 20.7253 180.779 21.216V16.32H182.539V26.016C182.539 26.2187 182.577 26.3627 182.651 26.448C182.726 26.5333 182.849 26.5813 183.019 26.592V28C182.689 28.0533 182.433 28.08 182.251 28.08C181.921 28.08 181.638 27.984 181.403 27.792C181.179 27.6 181.062 27.3707 181.051 27.104L181.035 26.48C180.715 27.0133 180.283 27.4293 179.739 27.728C179.195 28.016 178.63 28.16 178.043 28.16C177.467 28.16 176.934 28.048 176.443 27.824C175.963 27.6 175.542 27.2853 175.179 26.88C174.827 26.4747 174.55 26.0107 174.347 25.488C174.155 24.9653 174.059 24.4107 174.059 23.824ZM180.779 24.992V22.8C180.662 22.4587 180.47 22.1547 180.203 21.888C179.947 21.6107 179.654 21.392 179.323 21.232C179.003 21.072 178.683 20.992 178.363 20.992C177.99 20.992 177.649 21.072 177.339 21.232C177.041 21.392 176.779 21.6053 176.555 21.872C176.342 22.1387 176.177 22.4427 176.059 22.784C175.942 23.1253 175.883 23.4827 175.883 23.856C175.883 24.24 175.947 24.6027 176.075 24.944C176.203 25.2747 176.385 25.5733 176.619 25.84C176.865 26.096 177.142 26.2987 177.451 26.448C177.771 26.5867 178.118 26.656 178.491 26.656C178.726 26.656 178.961 26.6133 179.195 26.528C179.441 26.4427 179.67 26.3253 179.883 26.176C180.107 26.0267 180.294 25.8507 180.443 25.648C180.603 25.4453 180.715 25.2267 180.779 24.992Z" fill="#0C54FF"/>
</svg>
