<svg width="80" height="80" viewBox="0 0 80 80" fill="none" xmlns="http://www.w3.org/2000/svg">
<rect width="80" height="80" rx="40" fill="#1B1B1F"/>
<path d="M41.6663 31.6667L39.8071 27.9482C39.272 26.878 39.0044 26.3429 38.6053 25.9519C38.2523 25.6062 37.8269 25.3433 37.3598 25.1822C36.8316 25 36.2334 25 35.0368 25H28.6663C26.7995 25 25.8661 25 25.153 25.3633C24.5258 25.6829 24.0159 26.1928 23.6963 26.82C23.333 27.5331 23.333 28.4665 23.333 30.3333V31.6667M23.333 31.6667H48.6663C51.4666 31.6667 52.8667 31.6667 53.9363 32.2116C54.8771 32.691 55.642 33.4559 56.1214 34.3967C56.6663 35.4663 56.6663 36.8664 56.6663 39.6667V47C56.6663 49.8003 56.6663 51.2004 56.1214 52.27C55.642 53.2108 54.8771 53.9757 53.9363 54.455C52.8667 55 51.4666 55 48.6663 55H31.333C28.5327 55 27.1326 55 26.0631 54.455C25.1222 53.9757 24.3573 53.2108 23.878 52.27C23.333 51.2004 23.333 49.8003 23.333 47V31.6667ZM39.9997 48.3333V38.3333M34.9997 43.3333H44.9997" stroke="#2F80FF" stroke-width="1.25" stroke-linecap="round" stroke-linejoin="round"/>
</svg>
