<svg width="32" height="32" viewBox="0 0 32 32" fill="none" xmlns="http://www.w3.org/2000/svg">
<path d="M28.9842 3.01572C24.9632 -1.00528 18.4209 -1.00522 14.3999 3.01578C11.6533 5.76234 10.6993 9.80991 11.8886 13.4821L0.274687 25.096C0.187586 25.183 0.118493 25.2864 0.0713593 25.4001C0.024226 25.5139 -2.27331e-05 25.6358 1.59919e-08 25.7589V31.0625C1.59919e-08 31.5807 0.419313 32 0.9375 32H6.24113C6.49013 32 6.72819 31.9012 6.90394 31.7253L8.22962 30.3987C8.32955 30.2988 8.40558 30.1775 8.45203 30.044C8.49848 29.9105 8.51416 29.7682 8.49787 29.6278L8.33306 28.2033L10.3069 28.0174C10.5242 27.9972 10.7276 27.9016 10.8819 27.7473C11.0362 27.593 11.1318 27.3896 11.152 27.1723L11.3379 25.1985L12.7624 25.3642C13.027 25.3998 13.2934 25.311 13.4939 25.1335C13.5926 25.0454 13.6716 24.9375 13.7257 24.8168C13.7798 24.6961 13.8078 24.5654 13.8079 24.4331V22.6875H15.5218C15.7708 22.6875 16.0089 22.5887 16.1846 22.4128L18.5888 20.0405C22.2601 21.2307 26.2376 20.3485 28.9842 17.6001C33.0052 13.5792 33.0052 7.03672 28.9842 3.01572ZM26.332 9.64509C25.2352 10.7419 23.4517 10.7419 22.3549 9.64509C21.2581 8.54828 21.2581 6.76484 22.3549 5.66803C23.4517 4.57122 25.2352 4.57122 26.332 5.66803C27.4288 6.76484 27.4287 8.54828 26.332 9.64509Z" fill="#0049FF"/>
</svg>
