<svg width="22" height="22" viewBox="0 0 22 22" fill="none" xmlns="http://www.w3.org/2000/svg">
<path d="M20.4422 0.0952148H1.74362C0.88682 0.0952148 0.190674 0.801097 0.190674 1.66763V20.3321C0.190674 21.1987 0.88682 21.9045 1.74362 21.9045H20.4422C21.299 21.9045 22 21.1987 22 20.3321V1.66763C22 0.801097 21.299 0.0952148 20.4422 0.0952148ZM6.78216 18.7889H3.5497V8.38081H6.78702V18.7889H6.78216ZM5.16593 6.95931C4.12901 6.95931 3.29169 6.11712 3.29169 5.08507C3.29169 4.05302 4.12901 3.21083 5.16593 3.21083C6.19798 3.21083 7.04017 4.05302 7.04017 5.08507C7.04017 6.12199 6.20285 6.95931 5.16593 6.95931ZM18.899 18.7889H15.6665V13.726C15.6665 12.5187 15.6422 10.9658 13.987 10.9658C12.3026 10.9658 12.0446 12.2802 12.0446 13.6384V18.7889H8.81218V8.38081H11.9132V9.80232H11.957C12.3903 8.98447 13.4467 8.1228 15.0191 8.1228C18.2905 8.1228 18.899 10.2794 18.899 13.0835V18.7889Z" fill="white"/>
</svg>
