<svg width="40" height="40" viewBox="0 0 40 40" fill="none" xmlns="http://www.w3.org/2000/svg">
<rect width="40" height="40" rx="4" fill="#131514"/>
<path d="M26.7539 18.1463H25.8832V15.0805C25.8832 11.8365 23.244 9.19727 20 9.19727C16.7561 9.19727 14.1168 11.8365 14.1168 15.0805V18.1464H13.2462C12.558 18.1464 12 18.7043 12 19.3926V29.5577C12 30.246 12.558 30.804 13.2462 30.804H26.7539C27.4421 30.804 28 30.246 28 29.5577V19.3926C28 18.7043 27.4421 18.1463 26.7539 18.1463ZM21.3265 27.0731H18.6736L19.1484 24.8106C18.7044 24.5281 18.4078 24.0347 18.4078 23.4694C18.4078 22.5901 19.1207 21.8772 20 21.8772C20.8794 21.8772 21.5921 22.5901 21.5921 23.4694C21.5921 24.0347 21.2956 24.5281 20.8517 24.8106L21.3265 27.0731ZM23.784 18.1463H16.216V15.0805C16.216 12.9938 17.9134 11.2964 20 11.2964C22.0867 11.2964 23.784 12.9938 23.784 15.0805V18.1463Z" fill="white"/>
</svg>
