<svg width="172" height="32" viewBox="0 0 172 32" fill="none" xmlns="http://www.w3.org/2000/svg">
<g clip-path="url(#clip0_292_6137)">
<path d="M4.54394 10.0457V26.2722L0.123047 21.8728V5.40631C2.07314 5.40631 3.17837 6.38705 3.79613 7.36778C4.2926 8.1722 4.55182 9.10047 4.54394 10.0457Z" fill="#0049FF" stroke="#0049FF" stroke-width="0.126383" stroke-miterlimit="10"/>
<path d="M17.4116 6.30483C17.4115 6.51516 17.3993 6.72531 17.3749 6.93422C17.2207 8.24482 16.5908 9.45323 15.6047 10.3301C14.6185 11.2071 13.3448 11.6915 12.0251 11.6915C10.7055 11.6915 9.43176 11.2071 8.44562 10.3301C7.45947 9.45323 6.82953 8.24482 6.67533 6.93422C6.62645 6.51605 6.62645 6.09361 6.67533 5.67544C6.83538 4.31042 7.51117 3.05821 8.56432 2.17517C9.61748 1.29213 10.9683 0.845067 12.3404 0.925499C13.7124 1.00593 15.0018 1.60777 15.9445 2.60782C16.8873 3.60786 17.4121 4.93046 17.4116 6.30483Z" fill="#0049FF" stroke="#0049FF" stroke-width="0.126383" stroke-miterlimit="10"/>
<path d="M19.506 10.0462V26.2727L23.9269 21.8733V5.4068C21.9768 5.4068 20.8716 6.38753 20.2538 7.36827C19.7574 8.17269 19.4982 9.10096 19.506 10.0462Z" fill="#0049FF" stroke="#0049FF" stroke-width="0.126383" stroke-miterlimit="10"/>
<path d="M17.3755 19.127V26.7025L12.0257 31.1714L6.67593 26.7025V19.127C6.66909 18.1212 6.89944 17.1279 7.34829 16.2278C8.02823 14.8869 9.37801 13.4233 12.0257 13.4233C14.6735 13.4233 16.0232 14.8869 16.7032 16.2278C17.152 17.1279 17.3824 18.1212 17.3755 19.127Z" fill="#0049FF" stroke="#0049FF" stroke-width="0.126383" stroke-miterlimit="10"/>
</g>
<path d="M38.7385 3.11556C39.7909 3.11556 40.7106 3.31941 41.4976 3.72711C42.294 4.12534 42.9056 4.70371 43.3322 5.46222C43.7684 6.21126 43.9865 7.0883 43.9865 8.09333C43.9865 9.09837 43.7684 9.97067 43.3322 10.7102C42.9056 11.4498 42.294 12.0187 41.4976 12.4169C40.7106 12.8056 39.7909 13 38.7385 13H35.51V3.11556H38.7385ZM38.7385 11.6773C39.8952 11.6773 40.7817 11.3644 41.398 10.7387C42.0143 10.1129 42.3225 9.23111 42.3225 8.09333C42.3225 6.94608 42.0143 6.05008 41.398 5.40534C40.7817 4.76059 39.8952 4.43822 38.7385 4.43822H37.1314V11.6773H38.7385ZM46.1338 4.12534C45.8399 4.12534 45.5934 4.02578 45.3942 3.82667C45.1951 3.62756 45.0956 3.38104 45.0956 3.08711C45.0956 2.79319 45.1951 2.54667 45.3942 2.34756C45.5934 2.14845 45.8399 2.04889 46.1338 2.04889C46.4182 2.04889 46.66 2.14845 46.8591 2.34756C47.0582 2.54667 47.1578 2.79319 47.1578 3.08711C47.1578 3.38104 47.0582 3.62756 46.8591 3.82667C46.66 4.02578 46.4182 4.12534 46.1338 4.12534ZM46.9302 5.16356V13H45.3089V5.16356H46.9302ZM51.9318 5.03556C52.5386 5.03556 53.0743 5.15882 53.5389 5.40534C54.013 5.64237 54.3828 5.94104 54.6482 6.30134V5.16356H56.2838V13.128C56.2838 13.8486 56.1321 14.4886 55.8287 15.048C55.5253 15.6169 55.0844 16.0625 54.506 16.3849C53.9371 16.7073 53.2545 16.8684 52.458 16.8684C51.3961 16.8684 50.5143 16.6172 49.8127 16.1147C49.1111 15.6216 48.7128 14.9484 48.618 14.0951H50.2251C50.3484 14.5028 50.6091 14.8299 51.0074 15.0764C51.4151 15.3324 51.8986 15.4604 52.458 15.4604C53.1122 15.4604 53.6385 15.2613 54.0367 14.8631C54.4444 14.4649 54.6482 13.8865 54.6482 13.128V11.8196C54.3733 12.1893 53.9988 12.5022 53.5247 12.7582C53.0601 13.0047 52.5291 13.128 51.9318 13.128C51.2491 13.128 50.6234 12.9573 50.0545 12.616C49.4951 12.2652 49.0494 11.7816 48.7176 11.1653C48.3952 10.5396 48.234 9.83319 48.234 9.04622C48.234 8.25926 48.3952 7.56237 48.7176 6.95556C49.0494 6.34874 49.4951 5.87941 50.0545 5.54756C50.6234 5.20622 51.2491 5.03556 51.9318 5.03556ZM54.6482 9.07467C54.6482 8.53422 54.5345 8.06489 54.3069 7.66667C54.0888 7.26845 53.7997 6.96504 53.4394 6.75645C53.0791 6.54785 52.6903 6.44356 52.2731 6.44356C51.8559 6.44356 51.4672 6.54785 51.1069 6.75645C50.7466 6.95556 50.4527 7.25422 50.2251 7.65245C50.0071 8.04119 49.898 8.50578 49.898 9.04622C49.898 9.58667 50.0071 10.0607 50.2251 10.4684C50.4527 10.8761 50.7466 11.189 51.1069 11.4071C51.4767 11.6157 51.8654 11.72 52.2731 11.72C52.6903 11.72 53.0791 11.6157 53.4394 11.4071C53.7997 11.1985 54.0888 10.8951 54.3069 10.4969C54.5345 10.0892 54.6482 9.61511 54.6482 9.07467ZM58.9538 4.12534C58.6599 4.12534 58.4134 4.02578 58.2142 3.82667C58.0151 3.62756 57.9156 3.38104 57.9156 3.08711C57.9156 2.79319 58.0151 2.54667 58.2142 2.34756C58.4134 2.14845 58.6599 2.04889 58.9538 2.04889C59.2382 2.04889 59.48 2.14845 59.6791 2.34756C59.8782 2.54667 59.9778 2.79319 59.9778 3.08711C59.9778 3.38104 59.8782 3.62756 59.6791 3.82667C59.48 4.02578 59.2382 4.12534 58.9538 4.12534ZM59.7502 5.16356V13H58.1289V5.16356H59.7502ZM63.486 6.48622V10.824C63.486 11.1179 63.5524 11.3313 63.6851 11.464C63.8274 11.5873 64.0644 11.6489 64.3962 11.6489H65.3918V13H64.1118C63.3817 13 62.8223 12.8293 62.4336 12.488C62.0448 12.1467 61.8505 11.592 61.8505 10.824V6.48622H60.926V5.16356H61.8505V3.21511H63.486V5.16356H65.3918V6.48622H63.486ZM66.0612 9.04622C66.0612 8.25926 66.2224 7.56237 66.5448 6.95556C66.8766 6.34874 67.3223 5.87941 67.8817 5.54756C68.4506 5.20622 69.0763 5.03556 69.759 5.03556C70.3753 5.03556 70.911 5.15882 71.3661 5.40534C71.8307 5.64237 72.2005 5.94104 72.4755 6.30134V5.16356H74.111V13H72.4755V11.8338C72.2005 12.2036 71.826 12.5117 71.3519 12.7582C70.8778 13.0047 70.3374 13.128 69.7306 13.128C69.0574 13.128 68.4411 12.9573 67.8817 12.616C67.3223 12.2652 66.8766 11.7816 66.5448 11.1653C66.2224 10.5396 66.0612 9.83319 66.0612 9.04622ZM72.4755 9.07467C72.4755 8.53422 72.3617 8.06489 72.1341 7.66667C71.9161 7.26845 71.6269 6.96504 71.2666 6.75645C70.9063 6.54785 70.5175 6.44356 70.1003 6.44356C69.6832 6.44356 69.2944 6.54785 68.9341 6.75645C68.5738 6.95556 68.2799 7.25422 68.0523 7.65245C67.8343 8.04119 67.7252 8.50578 67.7252 9.04622C67.7252 9.58667 67.8343 10.0607 68.0523 10.4684C68.2799 10.8761 68.5738 11.189 68.9341 11.4071C69.3039 11.6157 69.6926 11.72 70.1003 11.72C70.5175 11.72 70.9063 11.6157 71.2666 11.4071C71.6269 11.1985 71.9161 10.8951 72.1341 10.4969C72.3617 10.0892 72.4755 9.61511 72.4755 9.07467ZM77.5775 2.47556V13H75.9561V2.47556H77.5775ZM88.7908 10.9804H84.6521L83.941 13H82.2486L85.7899 3.10134H87.6672L91.2086 13H89.5019L88.7908 10.9804ZM88.3357 9.65778L86.7286 5.064L85.1072 9.65778H88.3357ZM95.3083 13.128C94.692 13.128 94.1374 13.019 93.6443 12.8009C93.1608 12.5733 92.7768 12.2699 92.4923 11.8907C92.2079 11.5019 92.0562 11.0705 92.0372 10.5964H93.7154C93.7439 10.9283 93.9003 11.208 94.1848 11.4356C94.4787 11.6536 94.8437 11.7627 95.2799 11.7627C95.735 11.7627 96.0858 11.6773 96.3323 11.5067C96.5883 11.3265 96.7163 11.099 96.7163 10.824C96.7163 10.5301 96.5741 10.312 96.2897 10.1698C96.0147 10.0276 95.5738 9.87111 94.967 9.70045C94.3792 9.53926 93.9003 9.38282 93.5306 9.23111C93.1608 9.07941 92.8384 8.84711 92.5635 8.53422C92.298 8.22133 92.1652 7.80889 92.1652 7.29689C92.1652 6.87971 92.2885 6.50045 92.535 6.15911C92.7815 5.8083 93.1323 5.53334 93.5874 5.33422C94.052 5.13511 94.583 5.03556 95.1803 5.03556C96.0716 5.03556 96.7874 5.26311 97.3279 5.71822C97.8778 6.16385 98.1717 6.77541 98.2097 7.55289H96.5883C96.5599 7.20208 96.4177 6.92237 96.1617 6.71378C95.9057 6.50519 95.5596 6.40089 95.1234 6.40089C94.6968 6.40089 94.3697 6.48148 94.1421 6.64267C93.9146 6.80385 93.8008 7.01719 93.8008 7.28267C93.8008 7.49126 93.8766 7.66667 94.0283 7.80889C94.18 7.95111 94.3649 8.06489 94.583 8.15022C94.8011 8.22608 95.1234 8.32563 95.5501 8.44889C96.119 8.60059 96.5836 8.75704 96.9439 8.91822C97.3137 9.06993 97.6313 9.29748 97.8968 9.60089C98.1623 9.9043 98.2997 10.3073 98.3092 10.8098C98.3092 11.2554 98.186 11.6536 97.9394 12.0044C97.6929 12.3553 97.3421 12.6302 96.887 12.8293C96.4414 13.0284 95.9152 13.128 95.3083 13.128ZM102.621 13.128C102.005 13.128 101.45 13.019 100.957 12.8009C100.474 12.5733 100.09 12.2699 99.8051 11.8907C99.5207 11.5019 99.369 11.0705 99.35 10.5964H101.028C101.057 10.9283 101.213 11.208 101.498 11.4356C101.791 11.6536 102.157 11.7627 102.593 11.7627C103.048 11.7627 103.399 11.6773 103.645 11.5067C103.901 11.3265 104.029 11.099 104.029 10.824C104.029 10.5301 103.887 10.312 103.602 10.1698C103.327 10.0276 102.887 9.87111 102.28 9.70045C101.692 9.53926 101.213 9.38282 100.843 9.23111C100.474 9.07941 100.151 8.84711 99.8762 8.53422C99.6107 8.22133 99.478 7.80889 99.478 7.29689C99.478 6.87971 99.6013 6.50045 99.8478 6.15911C100.094 5.8083 100.445 5.53334 100.9 5.33422C101.365 5.13511 101.896 5.03556 102.493 5.03556C103.384 5.03556 104.1 5.26311 104.641 5.71822C105.191 6.16385 105.485 6.77541 105.522 7.55289H103.901C103.873 7.20208 103.73 6.92237 103.474 6.71378C103.218 6.50519 102.872 6.40089 102.436 6.40089C102.01 6.40089 101.682 6.48148 101.455 6.64267C101.227 6.80385 101.114 7.01719 101.114 7.28267C101.114 7.49126 101.189 7.66667 101.341 7.80889C101.493 7.95111 101.678 8.06489 101.896 8.15022C102.114 8.22608 102.436 8.32563 102.863 8.44889C103.432 8.60059 103.896 8.75704 104.257 8.91822C104.626 9.06993 104.944 9.29748 105.21 9.60089C105.475 9.9043 105.613 10.3073 105.622 10.8098C105.622 11.2554 105.499 11.6536 105.252 12.0044C105.006 12.3553 104.655 12.6302 104.2 12.8293C103.754 13.0284 103.228 13.128 102.621 13.128ZM114.272 8.88978C114.272 9.1837 114.253 9.44919 114.215 9.68622H108.227C108.275 10.312 108.507 10.8145 108.924 11.1938C109.341 11.573 109.853 11.7627 110.46 11.7627C111.332 11.7627 111.949 11.3976 112.309 10.6676H114.058C113.821 11.3881 113.39 11.9807 112.764 12.4453C112.148 12.9004 111.38 13.128 110.46 13.128C109.711 13.128 109.038 12.9621 108.441 12.6302C107.853 12.2889 107.388 11.8148 107.047 11.208C106.715 10.5917 106.549 9.88059 106.549 9.07467C106.549 8.26874 106.71 7.56237 107.033 6.95556C107.364 6.33926 107.824 5.86519 108.412 5.53334C109.009 5.20148 109.692 5.03556 110.46 5.03556C111.2 5.03556 111.859 5.19674 112.437 5.51911C113.015 5.84148 113.466 6.29659 113.788 6.88445C114.11 7.46282 114.272 8.13126 114.272 8.88978ZM112.579 8.37778C112.57 7.78045 112.356 7.30163 111.939 6.94133C111.522 6.58104 111.005 6.40089 110.389 6.40089C109.83 6.40089 109.351 6.58104 108.953 6.94133C108.554 7.29215 108.317 7.77096 108.241 8.37778H112.579ZM117.474 6.48622V10.824C117.474 11.1179 117.541 11.3313 117.673 11.464C117.816 11.5873 118.053 11.6489 118.385 11.6489H119.38V13H118.1C117.37 13 116.811 12.8293 116.422 12.488C116.033 12.1467 115.839 11.592 115.839 10.824V6.48622H114.914V5.16356H115.839V3.21511H117.474V5.16356H119.38V6.48622H117.474ZM123.434 13.128C122.818 13.128 122.263 13.019 121.77 12.8009C121.287 12.5733 120.903 12.2699 120.618 11.8907C120.334 11.5019 120.182 11.0705 120.163 10.5964H121.842C121.87 10.9283 122.026 11.208 122.311 11.4356C122.605 11.6536 122.97 11.7627 123.406 11.7627C123.861 11.7627 124.212 11.6773 124.458 11.5067C124.714 11.3265 124.842 11.099 124.842 10.824C124.842 10.5301 124.7 10.312 124.416 10.1698C124.141 10.0276 123.7 9.87111 123.093 9.70045C122.505 9.53926 122.026 9.38282 121.657 9.23111C121.287 9.07941 120.965 8.84711 120.69 8.53422C120.424 8.22133 120.291 7.80889 120.291 7.29689C120.291 6.87971 120.415 6.50045 120.661 6.15911C120.908 5.8083 121.258 5.53334 121.714 5.33422C122.178 5.13511 122.709 5.03556 123.306 5.03556C124.198 5.03556 124.914 5.26311 125.454 5.71822C126.004 6.16385 126.298 6.77541 126.336 7.55289H124.714C124.686 7.20208 124.544 6.92237 124.288 6.71378C124.032 6.50519 123.686 6.40089 123.25 6.40089C122.823 6.40089 122.496 6.48148 122.268 6.64267C122.041 6.80385 121.927 7.01719 121.927 7.28267C121.927 7.49126 122.003 7.66667 122.154 7.80889C122.306 7.95111 122.491 8.06489 122.709 8.15022C122.927 8.22608 123.25 8.32563 123.676 8.44889C124.245 8.60059 124.71 8.75704 125.07 8.91822C125.44 9.06993 125.757 9.29748 126.023 9.60089C126.288 9.9043 126.426 10.3073 126.435 10.8098C126.435 11.2554 126.312 11.6536 126.066 12.0044C125.819 12.3553 125.468 12.6302 125.013 12.8293C124.567 13.0284 124.041 13.128 123.434 13.128ZM137.699 3.11556V4.43822H135.067V13H133.446V4.43822H130.801V3.11556H137.699ZM146.238 8.88978C146.238 9.1837 146.219 9.44919 146.181 9.68622H140.194C140.241 10.312 140.474 10.8145 140.891 11.1938C141.308 11.573 141.82 11.7627 142.427 11.7627C143.299 11.7627 143.915 11.3976 144.276 10.6676H146.025C145.788 11.3881 145.357 11.9807 144.731 12.4453C144.114 12.9004 143.346 13.128 142.427 13.128C141.678 13.128 141.005 12.9621 140.407 12.6302C139.819 12.2889 139.355 11.8148 139.013 11.208C138.682 10.5917 138.516 9.88059 138.516 9.07467C138.516 8.26874 138.677 7.56237 138.999 6.95556C139.331 6.33926 139.791 5.86519 140.379 5.53334C140.976 5.20148 141.659 5.03556 142.427 5.03556C143.166 5.03556 143.825 5.19674 144.404 5.51911C144.982 5.84148 145.432 6.29659 145.755 6.88445C146.077 7.46282 146.238 8.13126 146.238 8.88978ZM144.546 8.37778C144.536 7.78045 144.323 7.30163 143.906 6.94133C143.489 6.58104 142.972 6.40089 142.356 6.40089C141.796 6.40089 141.317 6.58104 140.919 6.94133C140.521 7.29215 140.284 7.77096 140.208 8.37778H144.546ZM147.009 9.04622C147.009 8.25926 147.17 7.56237 147.493 6.95556C147.824 6.34874 148.27 5.87941 148.829 5.54756C149.398 5.20622 150.024 5.03556 150.707 5.03556C151.323 5.03556 151.859 5.15882 152.314 5.40534C152.778 5.64237 153.148 5.94104 153.423 6.30134V5.16356H155.059V13H153.423V11.8338C153.148 12.2036 152.774 12.5117 152.3 12.7582C151.826 13.0047 151.285 13.128 150.678 13.128C150.005 13.128 149.389 12.9573 148.829 12.616C148.27 12.2652 147.824 11.7816 147.493 11.1653C147.17 10.5396 147.009 9.83319 147.009 9.04622ZM153.423 9.07467C153.423 8.53422 153.309 8.06489 153.082 7.66667C152.864 7.26845 152.575 6.96504 152.214 6.75645C151.854 6.54785 151.465 6.44356 151.048 6.44356C150.631 6.44356 150.242 6.54785 149.882 6.75645C149.522 6.95556 149.228 7.25422 149 7.65245C148.782 8.04119 148.673 8.50578 148.673 9.04622C148.673 9.58667 148.782 10.0607 149 10.4684C149.228 10.8761 149.522 11.189 149.882 11.4071C150.252 11.6157 150.64 11.72 151.048 11.72C151.465 11.72 151.854 11.6157 152.214 11.4071C152.575 11.1985 152.864 10.8951 153.082 10.4969C153.309 10.0892 153.423 9.61511 153.423 9.07467ZM166.39 5.03556C167.006 5.03556 167.556 5.16356 168.04 5.41956C168.533 5.67556 168.917 6.05482 169.192 6.55734C169.476 7.05985 169.619 7.66667 169.619 8.37778V13H168.011V8.61956C168.011 7.91793 167.836 7.38222 167.485 7.01245C167.134 6.63319 166.656 6.44356 166.049 6.44356C165.442 6.44356 164.958 6.63319 164.598 7.01245C164.247 7.38222 164.072 7.91793 164.072 8.61956V13H162.465V8.61956C162.465 7.91793 162.289 7.38222 161.939 7.01245C161.588 6.63319 161.109 6.44356 160.502 6.44356C159.895 6.44356 159.412 6.63319 159.051 7.01245C158.701 7.38222 158.525 7.91793 158.525 8.61956V13H156.904V5.16356H158.525V6.05956C158.791 5.73719 159.127 5.48593 159.535 5.30578C159.943 5.12563 160.379 5.03556 160.843 5.03556C161.469 5.03556 162.029 5.1683 162.522 5.43378C163.015 5.69926 163.394 6.08326 163.659 6.58578C163.896 6.11171 164.266 5.73719 164.769 5.46222C165.271 5.17778 165.812 5.03556 166.39 5.03556ZM37.1171 19.1156V25.416C37.1171 26.165 37.3115 26.7292 37.7002 27.1084C38.0985 27.4877 38.6484 27.6773 39.35 27.6773C40.0611 27.6773 40.6111 27.4877 40.9998 27.1084C41.398 26.7292 41.5971 26.165 41.5971 25.416V19.1156H43.2185V25.3876C43.2185 26.1935 43.0431 26.8761 42.6922 27.4356C42.3414 27.995 41.8721 28.4121 41.2842 28.6871C40.6964 28.9621 40.0469 29.0996 39.3358 29.0996C38.6247 29.0996 37.9752 28.9621 37.3874 28.6871C36.809 28.4121 36.3491 27.995 36.0078 27.4356C35.6665 26.8761 35.4958 26.1935 35.4958 25.3876V19.1156H37.1171ZM53.1659 29H51.5446L46.6664 21.6187V29H45.045V19.1013H46.6664L51.5446 26.4684V19.1013H53.1659V29ZM56.6319 19.1156V29H55.0106V19.1156H56.6319ZM66.9952 19.1156L63.2832 29H61.4059L57.6797 19.1156H59.4148L62.3446 27.336L65.2886 19.1156H66.9952ZM69.688 20.424V23.3253H73.1013V24.648H69.688V27.6773H73.528V29H68.0667V19.1013H73.528V20.424H69.688ZM80.3748 29L78.0992 25.0462H76.8619V29H75.2406V19.1156H78.6539C79.4124 19.1156 80.0524 19.2483 80.5739 19.5138C81.1049 19.7793 81.4983 20.1348 81.7543 20.5804C82.0198 21.0261 82.1526 21.5239 82.1526 22.0738C82.1526 22.7185 81.9629 23.3064 81.5837 23.8373C81.2139 24.3588 80.6403 24.7144 79.8628 24.904L82.309 29H80.3748ZM76.8619 23.752H78.6539C79.2607 23.752 79.7158 23.6003 80.0192 23.2969C80.3321 22.9935 80.4886 22.5858 80.4886 22.0738C80.4886 21.5618 80.3369 21.1636 80.0335 20.8791C79.73 20.5852 79.2702 20.4382 78.6539 20.4382H76.8619V23.752ZM87.1991 29.0996C86.5354 29.0996 85.9381 28.9858 85.4071 28.7582C84.8762 28.5212 84.459 28.1893 84.1556 27.7627C83.8522 27.336 83.7005 26.8382 83.7005 26.2693H85.4356C85.4735 26.696 85.6394 27.0468 85.9333 27.3218C86.2367 27.5967 86.6587 27.7342 87.1991 27.7342C87.7585 27.7342 88.1947 27.6015 88.5076 27.336C88.8205 27.061 88.9769 26.7102 88.9769 26.2836C88.9769 25.9517 88.8773 25.6815 88.6782 25.4729C88.4886 25.2643 88.2468 25.1031 87.9529 24.9893C87.6685 24.8756 87.2702 24.7523 86.7582 24.6196C86.1135 24.4489 85.5873 24.2782 85.1796 24.1076C84.7813 23.9274 84.44 23.6524 84.1556 23.2827C83.8711 22.9129 83.7289 22.4199 83.7289 21.8036C83.7289 21.2347 83.8711 20.7369 84.1556 20.3102C84.44 19.8836 84.8382 19.5564 85.3502 19.3289C85.8622 19.1013 86.4548 18.9876 87.128 18.9876C88.0856 18.9876 88.8679 19.2293 89.4747 19.7129C90.091 20.187 90.4323 20.8412 90.4987 21.6756H88.7067C88.6782 21.3153 88.5076 21.0071 88.1947 20.7511C87.8818 20.4951 87.4693 20.3671 86.9573 20.3671C86.4927 20.3671 86.1135 20.4856 85.8196 20.7227C85.5256 20.9597 85.3787 21.301 85.3787 21.7467C85.3787 22.0501 85.4687 22.3013 85.6489 22.5004C85.8385 22.6901 86.0756 22.8418 86.36 22.9556C86.6445 23.0693 87.0332 23.1926 87.5262 23.3253C88.1805 23.5055 88.7114 23.6856 89.1191 23.8658C89.5363 24.0459 89.8871 24.3256 90.1716 24.7049C90.4655 25.0747 90.6125 25.5724 90.6125 26.1982C90.6125 26.7007 90.475 27.1748 90.2 27.6204C89.9345 28.0661 89.541 28.4264 89.0196 28.7013C88.5076 28.9668 87.9007 29.0996 87.1991 29.0996ZM93.8624 19.1156V29H92.2411V19.1156H93.8624ZM102.092 19.1156V20.4382H99.4613V29H97.84V20.4382H95.1947V19.1156H102.092ZM110.774 19.1156L107.503 25.416V29H105.882V25.416L102.597 19.1156H104.403L106.693 23.9653L108.982 19.1156H110.774Z" fill="#0049FF"/>
<defs>
<clipPath id="clip0_292_6137">
<rect width="24.2036" height="30.72" fill="white" transform="translate(0 0.639954)"/>
</clipPath>
</defs>
</svg>
