<svg width="236" height="44" viewBox="0 0 236 44" fill="none" xmlns="http://www.w3.org/2000/svg">
<g clip-path="url(#clip0_10_366)">
<path d="M6.56847 13.8128V36.1242L0.489746 30.075V7.43359C3.17113 7.43359 4.69081 8.7821 5.54023 10.1306C6.22288 11.2367 6.5793 12.5131 6.56847 13.8128Z" fill="white" stroke="white" stroke-width="0.173777" stroke-miterlimit="10"/>
<path d="M24.2615 8.66905C24.2614 8.95825 24.2446 9.2472 24.2111 9.53446C23.9991 11.3365 23.1329 12.9981 21.777 14.2039C20.421 15.4096 18.6696 16.0757 16.8551 16.0757C15.0406 16.0757 13.2892 15.4096 11.9333 14.2039C10.5773 12.9981 9.71116 11.3365 9.49913 9.53446C9.43193 8.95948 9.43193 8.37862 9.49913 7.80364C9.71921 5.92673 10.6484 4.20495 12.0965 2.99077C13.5446 1.77659 15.402 1.16188 17.2886 1.27247C19.1751 1.38306 20.948 2.2106 22.2443 3.58566C23.5406 4.96072 24.2622 6.77929 24.2615 8.66905Z" fill="white" stroke="white" stroke-width="0.173777" stroke-miterlimit="10"/>
<path d="M27.1423 13.8135V36.125L33.2211 30.0758V7.43433C30.5397 7.43433 29.02 8.78284 28.1706 10.1313C27.4879 11.2374 27.1315 12.5138 27.1423 13.8135Z" fill="white" stroke="white" stroke-width="0.173777" stroke-miterlimit="10"/>
<path d="M24.2127 26.2996V36.7158L16.8567 42.8606L9.50069 36.7158V26.2996C9.49129 24.9166 9.80802 23.5509 10.4252 22.3132C11.3601 20.4694 13.2161 18.457 16.8567 18.457C20.4973 18.457 22.3533 20.4694 23.2882 22.3132C23.9053 23.5509 24.2221 24.9166 24.2127 26.2996Z" fill="white" stroke="white" stroke-width="0.173777" stroke-miterlimit="10"/>
</g>
<path d="M53.5855 4.40889C55.0326 4.40889 56.2972 4.68919 57.3792 5.24978C58.4744 5.79734 59.3152 6.5926 59.9019 7.63556C60.5016 8.66548 60.8015 9.87141 60.8015 11.2533C60.8015 12.6353 60.5016 13.8347 59.9019 14.8516C59.3152 15.8684 58.4744 16.6507 57.3792 17.1982C56.2972 17.7327 55.0326 18 53.5855 18H49.1464V4.40889H53.5855ZM53.5855 16.1813C55.176 16.1813 56.3949 15.7511 57.2424 14.8907C58.0898 14.0302 58.5135 12.8178 58.5135 11.2533C58.5135 9.67585 58.0898 8.44385 57.2424 7.55734C56.3949 6.67082 55.176 6.22756 53.5855 6.22756H51.3757V16.1813H53.5855ZM63.754 5.79734C63.3499 5.79734 63.0109 5.66045 62.7372 5.38667C62.4634 5.11289 62.3265 4.77393 62.3265 4.36978C62.3265 3.96563 62.4634 3.62667 62.7372 3.35289C63.0109 3.07912 63.3499 2.94223 63.754 2.94223C64.1452 2.94223 64.4776 3.07912 64.7514 3.35289C65.0252 3.62667 65.162 3.96563 65.162 4.36978C65.162 4.77393 65.0252 5.11289 64.7514 5.38667C64.4776 5.66045 64.1452 5.79734 63.754 5.79734ZM64.8492 7.22489V18H62.6198V7.22489H64.8492ZM71.7263 7.04889C72.5607 7.04889 73.2973 7.21837 73.9361 7.55734C74.5879 7.88326 75.0964 8.29393 75.4614 8.78934V7.22489H77.7103V18.176C77.7103 19.1668 77.5017 20.0468 77.0845 20.816C76.6673 21.5982 76.0611 22.211 75.2658 22.6542C74.4836 23.0975 73.545 23.3191 72.4498 23.3191C70.9897 23.3191 69.7773 22.9736 68.8125 22.2827C67.8478 21.6047 67.3002 20.6791 67.1698 19.5058H69.3796C69.5491 20.0664 69.9076 20.5161 70.4552 20.8551C71.0158 21.2071 71.6807 21.3831 72.4498 21.3831C73.3494 21.3831 74.073 21.1093 74.6205 20.5618C75.1811 20.0142 75.4614 19.219 75.4614 18.176V16.3769C75.0833 16.8853 74.5684 17.3156 73.9165 17.6676C73.2777 18.0065 72.5476 18.176 71.7263 18.176C70.7876 18.176 69.9272 17.9413 69.145 17.472C68.3758 16.9896 67.763 16.3247 67.3067 15.4773C66.8635 14.6169 66.6418 13.6456 66.6418 12.5636C66.6418 11.4815 66.8635 10.5233 67.3067 9.68889C67.763 8.85452 68.3758 8.20919 69.145 7.75289C69.9272 7.28356 70.7876 7.04889 71.7263 7.04889ZM75.4614 12.6027C75.4614 11.8596 75.305 11.2142 74.9921 10.6667C74.6922 10.1191 74.2946 9.70193 73.7992 9.41511C73.3038 9.1283 72.7693 8.98489 72.1956 8.98489C71.622 8.98489 71.0875 9.1283 70.5921 9.41511C70.0967 9.68889 69.6925 10.0996 69.3796 10.6471C69.0798 11.1816 68.9298 11.8204 68.9298 12.5636C68.9298 13.3067 69.0798 13.9585 69.3796 14.5191C69.6925 15.0797 70.0967 15.5099 70.5921 15.8098C71.1005 16.0966 71.635 16.24 72.1956 16.24C72.7693 16.24 73.3038 16.0966 73.7992 15.8098C74.2946 15.523 74.6922 15.1058 74.9921 14.5582C75.305 13.9976 75.4614 13.3458 75.4614 12.6027ZM81.3815 5.79734C80.9774 5.79734 80.6384 5.66045 80.3647 5.38667C80.0909 5.11289 79.954 4.77393 79.954 4.36978C79.954 3.96563 80.0909 3.62667 80.3647 3.35289C80.6384 3.07912 80.9774 2.94223 81.3815 2.94223C81.7727 2.94223 82.1051 3.07912 82.3789 3.35289C82.6527 3.62667 82.7895 3.96563 82.7895 4.36978C82.7895 4.77393 82.6527 5.11289 82.3789 5.38667C82.1051 5.66045 81.7727 5.79734 81.3815 5.79734ZM82.4767 7.22489V18H80.2473V7.22489H82.4767ZM87.6133 9.04356V15.008C87.6133 15.4121 87.7046 15.7055 87.8871 15.888C88.0827 16.0575 88.4086 16.1422 88.8649 16.1422H90.2338V18H88.4738C87.4699 18 86.7007 17.7653 86.1662 17.296C85.6317 16.8267 85.3645 16.064 85.3645 15.008V9.04356H84.0933V7.22489H85.3645V4.54578H87.6133V7.22489H90.2338V9.04356H87.6133ZM91.1543 12.5636C91.1543 11.4815 91.3759 10.5233 91.8192 9.68889C92.2755 8.85452 92.8882 8.20919 93.6574 7.75289C94.4396 7.28356 95.3 7.04889 96.2387 7.04889C97.0861 7.04889 97.8227 7.21837 98.4485 7.55734C99.0873 7.88326 99.5958 8.29393 99.9738 8.78934V7.22489H102.223V18H99.9738V16.3964C99.5958 16.9049 99.0808 17.3286 98.4289 17.6676C97.7771 18.0065 97.034 18.176 96.1996 18.176C95.274 18.176 94.4266 17.9413 93.6574 17.472C92.8882 16.9896 92.2755 16.3247 91.8192 15.4773C91.3759 14.6169 91.1543 13.6456 91.1543 12.5636ZM99.9738 12.6027C99.9738 11.8596 99.8174 11.2142 99.5045 10.6667C99.2046 10.1191 98.807 9.70193 98.3116 9.41511C97.8162 9.1283 97.2817 8.98489 96.708 8.98489C96.1344 8.98489 95.5999 9.1283 95.1045 9.41511C94.6091 9.68889 94.2049 10.0996 93.892 10.6471C93.5922 11.1816 93.4423 11.8204 93.4423 12.5636C93.4423 13.3067 93.5922 13.9585 93.892 14.5191C94.2049 15.0797 94.6091 15.5099 95.1045 15.8098C95.6129 16.0966 96.1475 16.24 96.708 16.24C97.2817 16.24 97.8162 16.0966 98.3116 15.8098C98.807 15.523 99.2046 15.1058 99.5045 14.5582C99.8174 13.9976 99.9738 13.3458 99.9738 12.6027ZM106.989 3.52889V18H104.76V3.52889H106.989ZM122.407 15.2231H116.717L115.739 18H113.412L118.281 4.38934H120.863L125.732 18H123.385L122.407 15.2231ZM121.782 13.4044L119.572 7.088L117.343 13.4044H121.782ZM131.369 18.176C130.522 18.176 129.759 18.0261 129.081 17.7262C128.416 17.4133 127.888 16.9961 127.497 16.4747C127.106 15.9401 126.897 15.347 126.871 14.6951H129.179C129.218 15.1514 129.433 15.536 129.824 15.8489C130.228 16.1487 130.73 16.2987 131.33 16.2987C131.956 16.2987 132.438 16.1813 132.777 15.9467C133.129 15.699 133.305 15.3861 133.305 15.008C133.305 14.6039 133.109 14.304 132.718 14.1084C132.34 13.9129 131.734 13.6978 130.9 13.4631C130.091 13.2415 129.433 13.0264 128.925 12.8178C128.416 12.6092 127.973 12.2898 127.595 11.8596C127.23 11.4293 127.047 10.8622 127.047 10.1582C127.047 9.58459 127.217 9.06311 127.556 8.59378C127.895 8.11141 128.377 7.73334 129.003 7.45956C129.642 7.18578 130.372 7.04889 131.193 7.04889C132.419 7.04889 133.403 7.36178 134.146 7.98756C134.902 8.6003 135.306 9.44119 135.358 10.5102H133.129C133.09 10.0279 132.894 9.64326 132.542 9.35645C132.19 9.06963 131.715 8.92622 131.115 8.92622C130.528 8.92622 130.078 9.03704 129.765 9.25867C129.453 9.4803 129.296 9.77363 129.296 10.1387C129.296 10.4255 129.4 10.6667 129.609 10.8622C129.818 11.0578 130.072 11.2142 130.372 11.3316C130.672 11.4359 131.115 11.5727 131.701 11.7422C132.484 11.9508 133.123 12.1659 133.618 12.3876C134.126 12.5961 134.563 12.909 134.928 13.3262C135.293 13.7434 135.482 14.2975 135.495 14.9884C135.495 15.6012 135.326 16.1487 134.987 16.6311C134.648 17.1135 134.165 17.4916 133.54 17.7653C132.927 18.0391 132.203 18.176 131.369 18.176ZM141.424 18.176C140.577 18.176 139.814 18.0261 139.136 17.7262C138.471 17.4133 137.943 16.9961 137.552 16.4747C137.161 15.9401 136.952 15.347 136.926 14.6951H139.234C139.273 15.1514 139.488 15.536 139.879 15.8489C140.283 16.1487 140.785 16.2987 141.385 16.2987C142.011 16.2987 142.493 16.1813 142.832 15.9467C143.184 15.699 143.36 15.3861 143.36 15.008C143.36 14.6039 143.165 14.304 142.773 14.1084C142.395 13.9129 141.789 13.6978 140.955 13.4631C140.146 13.2415 139.488 13.0264 138.98 12.8178C138.471 12.6092 138.028 12.2898 137.65 11.8596C137.285 11.4293 137.102 10.8622 137.102 10.1582C137.102 9.58459 137.272 9.06311 137.611 8.59378C137.95 8.11141 138.432 7.73334 139.058 7.45956C139.697 7.18578 140.427 7.04889 141.248 7.04889C142.474 7.04889 143.458 7.36178 144.201 7.98756C144.957 8.6003 145.361 9.44119 145.413 10.5102H143.184C143.145 10.0279 142.949 9.64326 142.597 9.35645C142.245 9.06963 141.77 8.92622 141.17 8.92622C140.583 8.92622 140.133 9.03704 139.821 9.25867C139.508 9.4803 139.351 9.77363 139.351 10.1387C139.351 10.4255 139.456 10.6667 139.664 10.8622C139.873 11.0578 140.127 11.2142 140.427 11.3316C140.727 11.4359 141.17 11.5727 141.757 11.7422C142.539 11.9508 143.178 12.1659 143.673 12.3876C144.181 12.5961 144.618 12.909 144.983 13.3262C145.348 13.7434 145.537 14.2975 145.55 14.9884C145.55 15.6012 145.381 16.1487 145.042 16.6311C144.703 17.1135 144.221 17.4916 143.595 17.7653C142.982 18.0391 142.258 18.176 141.424 18.176ZM157.444 12.3484C157.444 12.7526 157.418 13.1176 157.365 13.4436H149.133C149.198 14.304 149.517 14.995 150.091 15.5164C150.664 16.0379 151.368 16.2987 152.203 16.2987C153.402 16.2987 154.25 15.7967 154.745 14.7929H157.15C156.824 15.7837 156.231 16.5985 155.371 17.2373C154.523 17.8631 153.467 18.176 152.203 18.176C151.173 18.176 150.247 17.9479 149.426 17.4916C148.618 17.0222 147.979 16.3704 147.509 15.536C147.053 14.6886 146.825 13.7108 146.825 12.6027C146.825 11.4945 147.047 10.5233 147.49 9.68889C147.946 8.84148 148.578 8.18963 149.387 7.73334C150.208 7.27704 151.147 7.04889 152.203 7.04889C153.22 7.04889 154.126 7.27052 154.921 7.71378C155.716 8.15704 156.335 8.78282 156.779 9.59111C157.222 10.3864 157.444 11.3055 157.444 12.3484ZM155.117 11.6444C155.103 10.8231 154.81 10.1647 154.237 9.66934C153.663 9.17393 152.952 8.92622 152.105 8.92622C151.336 8.92622 150.677 9.17393 150.13 9.66934C149.582 10.1517 149.256 10.8101 149.152 11.6444H155.117ZM161.847 9.04356V15.008C161.847 15.4121 161.939 15.7055 162.121 15.888C162.317 16.0575 162.643 16.1422 163.099 16.1422H164.468V18H162.708C161.704 18 160.935 17.7653 160.4 17.296C159.866 16.8267 159.598 16.064 159.598 15.008V9.04356H158.327V7.22489H159.598V4.54578H161.847V7.22489H164.468V9.04356H161.847ZM170.042 18.176C169.195 18.176 168.432 18.0261 167.754 17.7262C167.09 17.4133 166.562 16.9961 166.17 16.4747C165.779 15.9401 165.571 15.347 165.545 14.6951H167.852C167.891 15.1514 168.106 15.536 168.498 15.8489C168.902 16.1487 169.404 16.2987 170.003 16.2987C170.629 16.2987 171.111 16.1813 171.45 15.9467C171.802 15.699 171.978 15.3861 171.978 15.008C171.978 14.6039 171.783 14.304 171.392 14.1084C171.014 13.9129 170.407 13.6978 169.573 13.4631C168.765 13.2415 168.106 13.0264 167.598 12.8178C167.09 12.6092 166.646 12.2898 166.268 11.8596C165.903 11.4293 165.721 10.8622 165.721 10.1582C165.721 9.58459 165.89 9.06311 166.229 8.59378C166.568 8.11141 167.05 7.73334 167.676 7.45956C168.315 7.18578 169.045 7.04889 169.866 7.04889C171.092 7.04889 172.076 7.36178 172.819 7.98756C173.575 8.6003 173.98 9.44119 174.032 10.5102H171.802C171.763 10.0279 171.568 9.64326 171.216 9.35645C170.864 9.06963 170.388 8.92622 169.788 8.92622C169.202 8.92622 168.752 9.03704 168.439 9.25867C168.126 9.4803 167.97 9.77363 167.97 10.1387C167.97 10.4255 168.074 10.6667 168.282 10.8622C168.491 11.0578 168.745 11.2142 169.045 11.3316C169.345 11.4359 169.788 11.5727 170.375 11.7422C171.157 11.9508 171.796 12.1659 172.291 12.3876C172.8 12.5961 173.236 12.909 173.602 13.3262C173.967 13.7434 174.156 14.2975 174.169 14.9884C174.169 15.6012 173.999 16.1487 173.66 16.6311C173.321 17.1135 172.839 17.4916 172.213 17.7653C171.6 18.0391 170.877 18.176 170.042 18.176ZM189.656 4.40889V6.22756H186.038V18H183.808V6.22756H180.171V4.40889H189.656ZM201.398 12.3484C201.398 12.7526 201.372 13.1176 201.32 13.4436H193.087C193.152 14.304 193.471 14.995 194.045 15.5164C194.619 16.0379 195.323 16.2987 196.157 16.2987C197.356 16.2987 198.204 15.7967 198.699 14.7929H201.104C200.779 15.7837 200.185 16.5985 199.325 17.2373C198.477 17.8631 197.421 18.176 196.157 18.176C195.127 18.176 194.201 17.9479 193.38 17.4916C192.572 17.0222 191.933 16.3704 191.464 15.536C191.007 14.6886 190.779 13.7108 190.779 12.6027C190.779 11.4945 191.001 10.5233 191.444 9.68889C191.9 8.84148 192.533 8.18963 193.341 7.73334C194.162 7.27704 195.101 7.04889 196.157 7.04889C197.174 7.04889 198.08 7.27052 198.875 7.71378C199.67 8.15704 200.29 8.78282 200.733 9.59111C201.176 10.3864 201.398 11.3055 201.398 12.3484ZM199.071 11.6444C199.058 10.8231 198.764 10.1647 198.191 9.66934C197.617 9.17393 196.907 8.92622 196.059 8.92622C195.29 8.92622 194.632 9.17393 194.084 9.66934C193.536 10.1517 193.211 10.8101 193.106 11.6444H199.071ZM202.457 12.5636C202.457 11.4815 202.679 10.5233 203.122 9.68889C203.579 8.85452 204.191 8.20919 204.961 7.75289C205.743 7.28356 206.603 7.04889 207.542 7.04889C208.389 7.04889 209.126 7.21837 209.752 7.55734C210.39 7.88326 210.899 8.29393 211.277 8.78934V7.22489H213.526V18H211.277V16.3964C210.899 16.9049 210.384 17.3286 209.732 17.6676C209.08 18.0065 208.337 18.176 207.503 18.176C206.577 18.176 205.73 17.9413 204.961 17.472C204.191 16.9896 203.579 16.3247 203.122 15.4773C202.679 14.6169 202.457 13.6456 202.457 12.5636ZM211.277 12.6027C211.277 11.8596 211.121 11.2142 210.808 10.6667C210.508 10.1191 210.11 9.70193 209.615 9.41511C209.119 9.1283 208.585 8.98489 208.011 8.98489C207.438 8.98489 206.903 9.1283 206.408 9.41511C205.912 9.68889 205.508 10.0996 205.195 10.6471C204.895 11.1816 204.745 11.8204 204.745 12.5636C204.745 13.3067 204.895 13.9585 205.195 14.5191C205.508 15.0797 205.912 15.5099 206.408 15.8098C206.916 16.0966 207.451 16.24 208.011 16.24C208.585 16.24 209.119 16.0966 209.615 15.8098C210.11 15.523 210.508 15.1058 210.808 14.5582C211.121 13.9976 211.277 13.3458 211.277 12.6027ZM229.106 7.04889C229.954 7.04889 230.71 7.22489 231.375 7.57689C232.053 7.92889 232.581 8.45037 232.959 9.14134C233.35 9.8323 233.546 10.6667 233.546 11.6444V18H231.336V11.9769C231.336 11.0121 231.095 10.2756 230.612 9.76711C230.13 9.24563 229.471 8.98489 228.637 8.98489C227.803 8.98489 227.138 9.24563 226.642 9.76711C226.16 10.2756 225.919 11.0121 225.919 11.9769V18H223.709V11.9769C223.709 11.0121 223.468 10.2756 222.986 9.76711C222.503 9.24563 221.845 8.98489 221.01 8.98489C220.176 8.98489 219.511 9.24563 219.016 9.76711C218.533 10.2756 218.292 11.0121 218.292 11.9769V18H216.063V7.22489H218.292V8.45689C218.657 8.01363 219.12 7.66815 219.681 7.42045C220.241 7.17274 220.841 7.04889 221.48 7.04889C222.34 7.04889 223.109 7.23141 223.787 7.59645C224.465 7.96148 224.987 8.48948 225.352 9.18045C225.678 8.52859 226.186 8.01363 226.877 7.63556C227.568 7.24445 228.311 7.04889 229.106 7.04889ZM51.3561 26.4089V35.072C51.3561 36.1019 51.6234 36.8776 52.1579 37.3991C52.7055 37.9206 53.4616 38.1813 54.4264 38.1813C55.4041 38.1813 56.1603 37.9206 56.6948 37.3991C57.2424 36.8776 57.5161 36.1019 57.5161 35.072V26.4089H59.7455V35.0329C59.7455 36.141 59.5043 37.0797 59.0219 37.8489C58.5395 38.6181 57.8942 39.1917 57.0859 39.5698C56.2776 39.9479 55.3846 40.1369 54.4068 40.1369C53.429 40.1369 52.536 39.9479 51.7277 39.5698C50.9324 39.1917 50.3001 38.6181 49.8308 37.8489C49.3615 37.0797 49.1268 36.141 49.1268 35.0329V26.4089H51.3561ZM73.4232 40H71.1939L64.4863 29.8507V40H62.257V26.3893H64.4863L71.1939 36.5191V26.3893H73.4232V40ZM78.1889 26.4089V40H75.9596V26.4089H78.1889ZM92.4385 26.4089L87.3345 40H84.7532L79.6296 26.4089H82.0154L86.0439 37.712L90.0919 26.4089H92.4385ZM96.1411 28.208V32.1973H100.834V34.016H96.1411V38.1813H101.421V40H93.9118V26.3893H101.421V28.208H96.1411ZM110.835 40L107.707 34.5636H106.005V40H103.776V26.4089H108.469C109.512 26.4089 110.392 26.5914 111.109 26.9564C111.839 27.3215 112.38 27.8104 112.732 28.4231C113.097 29.0359 113.28 29.7203 113.28 30.4764C113.28 31.363 113.019 32.1713 112.498 32.9013C111.989 33.6184 111.2 34.1073 110.131 34.368L113.495 40H110.835ZM106.005 32.784H108.469C109.304 32.784 109.929 32.5754 110.347 32.1582C110.777 31.741 110.992 31.1804 110.992 30.4764C110.992 29.7724 110.783 29.2249 110.366 28.8338C109.949 28.4296 109.317 28.2276 108.469 28.2276H106.005V32.784ZM120.219 40.1369C119.306 40.1369 118.485 39.9804 117.755 39.6676C117.025 39.3416 116.451 38.8853 116.034 38.2987C115.617 37.712 115.408 37.0276 115.408 36.2453H117.794C117.846 36.832 118.074 37.3144 118.478 37.6924C118.896 38.0705 119.476 38.2596 120.219 38.2596C120.988 38.2596 121.588 38.077 122.018 37.712C122.448 37.3339 122.663 36.8516 122.663 36.2649C122.663 35.8086 122.526 35.437 122.253 35.1502C121.992 34.8634 121.659 34.6418 121.255 34.4853C120.864 34.3289 120.317 34.1594 119.613 33.9769C118.726 33.7422 118.003 33.5076 117.442 33.2729C116.894 33.0252 116.425 32.6471 116.034 32.1387C115.643 31.6302 115.447 30.9523 115.447 30.1049C115.447 29.3227 115.643 28.6382 116.034 28.0516C116.425 27.4649 116.973 27.0151 117.677 26.7022C118.381 26.3893 119.195 26.2329 120.121 26.2329C121.438 26.2329 122.513 26.5653 123.348 27.2302C124.195 27.8821 124.664 28.7816 124.756 29.9289H122.292C122.253 29.4335 122.018 29.0098 121.588 28.6578C121.158 28.3058 120.59 28.1298 119.886 28.1298C119.248 28.1298 118.726 28.2927 118.322 28.6187C117.918 28.9446 117.716 29.4139 117.716 30.0267C117.716 30.4439 117.84 30.7893 118.087 31.0631C118.348 31.3239 118.674 31.5324 119.065 31.6889C119.456 31.8453 119.991 32.0148 120.669 32.1973C121.568 32.445 122.298 32.6927 122.859 32.9404C123.432 33.1881 123.915 33.5727 124.306 34.0942C124.71 34.6027 124.912 35.2871 124.912 36.1476C124.912 36.8385 124.723 37.4904 124.345 38.1031C123.98 38.7159 123.439 39.2113 122.722 39.5893C122.018 39.9544 121.184 40.1369 120.219 40.1369ZM129.381 26.4089V40H127.152V26.4089H129.381ZM140.697 26.4089V28.2276H137.079V40H134.85V28.2276H131.213V26.4089H140.697ZM152.635 26.4089L148.137 35.072V40H145.908V35.072L141.39 26.4089H143.874L147.022 33.0773L150.171 26.4089H152.635Z" fill="white"/>
<defs>
<clipPath id="clip0_10_366">
<rect width="33.28" height="42.24" fill="white" transform="translate(0.319824 0.879883)"/>
</clipPath>
</defs>
</svg>
