<svg width="172" height="32" viewBox="0 0 172 32" fill="none" xmlns="http://www.w3.org/2000/svg">
<g clip-path="url(#clip0_1261_8179)">
<path d="M4.54589 10.0457V26.2722L0.125 21.8728V5.40625C2.0751 5.40625 3.18032 6.38698 3.79808 7.36772C4.29455 8.17214 4.55377 9.10041 4.54589 10.0457Z" fill="white" stroke="white" stroke-width="0.126383" stroke-miterlimit="10"/>
<path d="M17.4135 6.30483C17.4135 6.51516 17.4013 6.72531 17.3769 6.93422C17.2227 8.24482 16.5928 9.45323 15.6066 10.3301C14.6205 11.2071 13.3467 11.6915 12.0271 11.6915C10.7074 11.6915 9.43371 11.2071 8.44757 10.3301C7.46143 9.45323 6.83149 8.24482 6.67728 6.93422C6.62841 6.51605 6.62841 6.09361 6.67728 5.67544C6.83733 4.31042 7.51312 3.05821 8.56628 2.17517C9.61944 1.29213 10.9703 0.845067 12.3423 0.925499C13.7143 1.00593 15.0037 1.60777 15.9465 2.60782C16.8892 3.60786 17.4141 4.93046 17.4135 6.30483Z" fill="white" stroke="white" stroke-width="0.126383" stroke-miterlimit="10"/>
<path d="M19.5119 10.0462V26.2727L23.9328 21.8732V5.40674C21.9827 5.40674 20.8775 6.38747 20.2597 7.36821C19.7632 8.17263 19.504 9.1009 19.5119 10.0462Z" fill="white" stroke="white" stroke-width="0.126383" stroke-miterlimit="10"/>
<path d="M17.3795 19.127V26.7025L12.0296 31.1714L6.67984 26.7025V19.127C6.673 18.1212 6.90335 17.1279 7.3522 16.2278C8.03214 14.8869 9.38191 13.4233 12.0296 13.4233C14.6774 13.4233 16.0272 14.8869 16.7071 16.2278C17.1559 17.1279 17.3863 18.1212 17.3795 19.127Z" fill="white" stroke="white" stroke-width="0.126383" stroke-miterlimit="10"/>
</g>
<path d="M38.7404 3.11556C39.7929 3.11556 40.7126 3.31941 41.4995 3.72711C42.296 4.12534 42.9075 4.70371 43.3342 5.46222C43.7703 6.21126 43.9884 7.0883 43.9884 8.09333C43.9884 9.09837 43.7703 9.97067 43.3342 10.7102C42.9075 11.4498 42.296 12.0187 41.4995 12.4169C40.7126 12.8056 39.7929 13 38.7404 13H35.512V3.11556H38.7404ZM38.7404 11.6773C39.8972 11.6773 40.7837 11.3644 41.4 10.7387C42.0163 10.1129 42.3244 9.23111 42.3244 8.09333C42.3244 6.94608 42.0163 6.05008 41.4 5.40534C40.7837 4.76059 39.8972 4.43822 38.7404 4.43822H37.1333V11.6773H38.7404ZM46.1358 4.12534C45.8418 4.12534 45.5953 4.02578 45.3962 3.82667C45.1971 3.62756 45.0975 3.38104 45.0975 3.08711C45.0975 2.79319 45.1971 2.54667 45.3962 2.34756C45.5953 2.14845 45.8418 2.04889 46.1358 2.04889C46.4202 2.04889 46.662 2.14845 46.8611 2.34756C47.0602 2.54667 47.1598 2.79319 47.1598 3.08711C47.1598 3.38104 47.0602 3.62756 46.8611 3.82667C46.662 4.02578 46.4202 4.12534 46.1358 4.12534ZM46.9322 5.16356V13H45.3109V5.16356H46.9322ZM51.9338 5.03556C52.5406 5.03556 53.0763 5.15882 53.5409 5.40534C54.0149 5.64237 54.3847 5.94104 54.6502 6.30134V5.16356H56.2858V13.128C56.2858 13.8486 56.134 14.4886 55.8306 15.048C55.5272 15.6169 55.0863 16.0625 54.508 16.3849C53.9391 16.7073 53.2564 16.8684 52.46 16.8684C51.398 16.8684 50.5163 16.6172 49.8146 16.1147C49.113 15.6216 48.7148 14.9484 48.62 14.0951H50.2271C50.3503 14.5028 50.6111 14.8299 51.0093 15.0764C51.417 15.3324 51.9006 15.4604 52.46 15.4604C53.1142 15.4604 53.6404 15.2613 54.0386 14.8631C54.4463 14.4649 54.6502 13.8865 54.6502 13.128V11.8196C54.3752 12.1893 54.0007 12.5022 53.5266 12.7582C53.062 13.0047 52.5311 13.128 51.9338 13.128C51.2511 13.128 50.6253 12.9573 50.0564 12.616C49.497 12.2652 49.0514 11.7816 48.7195 11.1653C48.3972 10.5396 48.236 9.83319 48.236 9.04622C48.236 8.25926 48.3972 7.56237 48.7195 6.95556C49.0514 6.34874 49.497 5.87941 50.0564 5.54756C50.6253 5.20622 51.2511 5.03556 51.9338 5.03556ZM54.6502 9.07467C54.6502 8.53422 54.5364 8.06489 54.3089 7.66667C54.0908 7.26845 53.8016 6.96504 53.4413 6.75645C53.081 6.54785 52.6923 6.44356 52.2751 6.44356C51.8579 6.44356 51.4692 6.54785 51.1089 6.75645C50.7486 6.95556 50.4546 7.25422 50.2271 7.65245C50.009 8.04119 49.9 8.50578 49.9 9.04622C49.9 9.58667 50.009 10.0607 50.2271 10.4684C50.4546 10.8761 50.7486 11.189 51.1089 11.4071C51.4786 11.6157 51.8674 11.72 52.2751 11.72C52.6923 11.72 53.081 11.6157 53.4413 11.4071C53.8016 11.1985 54.0908 10.8951 54.3089 10.4969C54.5364 10.0892 54.6502 9.61511 54.6502 9.07467ZM58.9557 4.12534C58.6618 4.12534 58.4153 4.02578 58.2162 3.82667C58.0171 3.62756 57.9175 3.38104 57.9175 3.08711C57.9175 2.79319 58.0171 2.54667 58.2162 2.34756C58.4153 2.14845 58.6618 2.04889 58.9557 2.04889C59.2402 2.04889 59.482 2.14845 59.6811 2.34756C59.8802 2.54667 59.9797 2.79319 59.9797 3.08711C59.9797 3.38104 59.8802 3.62756 59.6811 3.82667C59.482 4.02578 59.2402 4.12534 58.9557 4.12534ZM59.7522 5.16356V13H58.1309V5.16356H59.7522ZM63.488 6.48622V10.824C63.488 11.1179 63.5543 11.3313 63.6871 11.464C63.8293 11.5873 64.0663 11.6489 64.3982 11.6489H65.3937V13H64.1137C63.3837 13 62.8243 12.8293 62.4355 12.488C62.0468 12.1467 61.8524 11.592 61.8524 10.824V6.48622H60.928V5.16356H61.8524V3.21511H63.488V5.16356H65.3937V6.48622H63.488ZM66.0632 9.04622C66.0632 8.25926 66.2244 7.56237 66.5467 6.95556C66.8786 6.34874 67.3242 5.87941 67.8836 5.54756C68.4525 5.20622 69.0783 5.03556 69.761 5.03556C70.3773 5.03556 70.913 5.15882 71.3681 5.40534C71.8327 5.64237 72.2024 5.94104 72.4774 6.30134V5.16356H74.113V13H72.4774V11.8338C72.2024 12.2036 71.8279 12.5117 71.3539 12.7582C70.8798 13.0047 70.3393 13.128 69.7325 13.128C69.0593 13.128 68.443 12.9573 67.8836 12.616C67.3242 12.2652 66.8786 11.7816 66.5467 11.1653C66.2244 10.5396 66.0632 9.83319 66.0632 9.04622ZM72.4774 9.07467C72.4774 8.53422 72.3636 8.06489 72.1361 7.66667C71.918 7.26845 71.6288 6.96504 71.2685 6.75645C70.9082 6.54785 70.5195 6.44356 70.1023 6.44356C69.6851 6.44356 69.2964 6.54785 68.9361 6.75645C68.5758 6.95556 68.2819 7.25422 68.0543 7.65245C67.8362 8.04119 67.7272 8.50578 67.7272 9.04622C67.7272 9.58667 67.8362 10.0607 68.0543 10.4684C68.2819 10.8761 68.5758 11.189 68.9361 11.4071C69.3059 11.6157 69.6946 11.72 70.1023 11.72C70.5195 11.72 70.9082 11.6157 71.2685 11.4071C71.6288 11.1985 71.918 10.8951 72.1361 10.4969C72.3636 10.0892 72.4774 9.61511 72.4774 9.07467ZM77.5794 2.47556V13H75.9581V2.47556H77.5794ZM88.7927 10.9804H84.6541L83.943 13H82.2505L85.7919 3.10134H87.6692L91.2105 13H89.5039L88.7927 10.9804ZM88.3376 9.65778L86.7305 5.064L85.1092 9.65778H88.3376ZM95.3103 13.128C94.694 13.128 94.1393 13.019 93.6463 12.8009C93.1627 12.5733 92.7787 12.2699 92.4943 11.8907C92.2098 11.5019 92.0581 11.0705 92.0392 10.5964H93.7174C93.7458 10.9283 93.9023 11.208 94.1867 11.4356C94.4807 11.6536 94.8457 11.7627 95.2818 11.7627C95.737 11.7627 96.0878 11.6773 96.3343 11.5067C96.5903 11.3265 96.7183 11.099 96.7183 10.824C96.7183 10.5301 96.5761 10.312 96.2916 10.1698C96.0167 10.0276 95.5758 9.87111 94.969 9.70045C94.3811 9.53926 93.9023 9.38282 93.5325 9.23111C93.1627 9.07941 92.8404 8.84711 92.5654 8.53422C92.2999 8.22133 92.1672 7.80889 92.1672 7.29689C92.1672 6.87971 92.2904 6.50045 92.537 6.15911C92.7835 5.8083 93.1343 5.53334 93.5894 5.33422C94.054 5.13511 94.585 5.03556 95.1823 5.03556C96.0736 5.03556 96.7894 5.26311 97.3298 5.71822C97.8798 6.16385 98.1737 6.77541 98.2116 7.55289H96.5903C96.5618 7.20208 96.4196 6.92237 96.1636 6.71378C95.9076 6.50519 95.5616 6.40089 95.1254 6.40089C94.6987 6.40089 94.3716 6.48148 94.1441 6.64267C93.9165 6.80385 93.8027 7.01719 93.8027 7.28267C93.8027 7.49126 93.8786 7.66667 94.0303 7.80889C94.182 7.95111 94.3669 8.06489 94.585 8.15022C94.803 8.22608 95.1254 8.32563 95.5521 8.44889C96.121 8.60059 96.5856 8.75704 96.9458 8.91822C97.3156 9.06993 97.6333 9.29748 97.8987 9.60089C98.1642 9.9043 98.3017 10.3073 98.3112 10.8098C98.3112 11.2554 98.1879 11.6536 97.9414 12.0044C97.6949 12.3553 97.3441 12.6302 96.889 12.8293C96.4433 13.0284 95.9171 13.128 95.3103 13.128ZM102.623 13.128C102.007 13.128 101.452 13.019 100.959 12.8009C100.476 12.5733 100.092 12.2699 99.8071 11.8907C99.5226 11.5019 99.3709 11.0705 99.352 10.5964H101.03C101.059 10.9283 101.215 11.208 101.5 11.4356C101.793 11.6536 102.158 11.7627 102.595 11.7627C103.05 11.7627 103.401 11.6773 103.647 11.5067C103.903 11.3265 104.031 11.099 104.031 10.824C104.031 10.5301 103.889 10.312 103.604 10.1698C103.329 10.0276 102.889 9.87111 102.282 9.70045C101.694 9.53926 101.215 9.38282 100.845 9.23111C100.476 9.07941 100.153 8.84711 99.8782 8.53422C99.6127 8.22133 99.48 7.80889 99.48 7.29689C99.48 6.87971 99.6032 6.50045 99.8497 6.15911C100.096 5.8083 100.447 5.53334 100.902 5.33422C101.367 5.13511 101.898 5.03556 102.495 5.03556C103.386 5.03556 104.102 5.26311 104.643 5.71822C105.193 6.16385 105.486 6.77541 105.524 7.55289H103.903C103.875 7.20208 103.732 6.92237 103.476 6.71378C103.22 6.50519 102.874 6.40089 102.438 6.40089C102.012 6.40089 101.684 6.48148 101.457 6.64267C101.229 6.80385 101.116 7.01719 101.116 7.28267C101.116 7.49126 101.191 7.66667 101.343 7.80889C101.495 7.95111 101.68 8.06489 101.898 8.15022C102.116 8.22608 102.438 8.32563 102.865 8.44889C103.434 8.60059 103.898 8.75704 104.259 8.91822C104.628 9.06993 104.946 9.29748 105.212 9.60089C105.477 9.9043 105.614 10.3073 105.624 10.8098C105.624 11.2554 105.501 11.6536 105.254 12.0044C105.008 12.3553 104.657 12.6302 104.202 12.8293C103.756 13.0284 103.23 13.128 102.623 13.128ZM114.274 8.88978C114.274 9.1837 114.255 9.44919 114.217 9.68622H108.229C108.277 10.312 108.509 10.8145 108.926 11.1938C109.343 11.573 109.855 11.7627 110.462 11.7627C111.334 11.7627 111.951 11.3976 112.311 10.6676H114.06C113.823 11.3881 113.392 11.9807 112.766 12.4453C112.15 12.9004 111.382 13.128 110.462 13.128C109.713 13.128 109.04 12.9621 108.443 12.6302C107.855 12.2889 107.39 11.8148 107.049 11.208C106.717 10.5917 106.551 9.88059 106.551 9.07467C106.551 8.26874 106.712 7.56237 107.035 6.95556C107.366 6.33926 107.826 5.86519 108.414 5.53334C109.011 5.20148 109.694 5.03556 110.462 5.03556C111.202 5.03556 111.861 5.19674 112.439 5.51911C113.017 5.84148 113.468 6.29659 113.79 6.88445C114.112 7.46282 114.274 8.13126 114.274 8.88978ZM112.581 8.37778C112.572 7.78045 112.358 7.30163 111.941 6.94133C111.524 6.58104 111.007 6.40089 110.391 6.40089C109.832 6.40089 109.353 6.58104 108.955 6.94133C108.556 7.29215 108.319 7.77096 108.243 8.37778H112.581ZM117.476 6.48622V10.824C117.476 11.1179 117.543 11.3313 117.675 11.464C117.818 11.5873 118.055 11.6489 118.387 11.6489H119.382V13H118.102C117.372 13 116.813 12.8293 116.424 12.488C116.035 12.1467 115.841 11.592 115.841 10.824V6.48622H114.916V5.16356H115.841V3.21511H117.476V5.16356H119.382V6.48622H117.476ZM123.436 13.128C122.82 13.128 122.265 13.019 121.772 12.8009C121.289 12.5733 120.905 12.2699 120.62 11.8907C120.336 11.5019 120.184 11.0705 120.165 10.5964H121.844C121.872 10.9283 122.028 11.208 122.313 11.4356C122.607 11.6536 122.972 11.7627 123.408 11.7627C123.863 11.7627 124.214 11.6773 124.46 11.5067C124.716 11.3265 124.844 11.099 124.844 10.824C124.844 10.5301 124.702 10.312 124.418 10.1698C124.143 10.0276 123.702 9.87111 123.095 9.70045C122.507 9.53926 122.028 9.38282 121.659 9.23111C121.289 9.07941 120.966 8.84711 120.692 8.53422C120.426 8.22133 120.293 7.80889 120.293 7.29689C120.293 6.87971 120.417 6.50045 120.663 6.15911C120.91 5.8083 121.26 5.53334 121.716 5.33422C122.18 5.13511 122.711 5.03556 123.308 5.03556C124.2 5.03556 124.916 5.26311 125.456 5.71822C126.006 6.16385 126.3 6.77541 126.338 7.55289H124.716C124.688 7.20208 124.546 6.92237 124.29 6.71378C124.034 6.50519 123.688 6.40089 123.252 6.40089C122.825 6.40089 122.498 6.48148 122.27 6.64267C122.043 6.80385 121.929 7.01719 121.929 7.28267C121.929 7.49126 122.005 7.66667 122.156 7.80889C122.308 7.95111 122.493 8.06489 122.711 8.15022C122.929 8.22608 123.252 8.32563 123.678 8.44889C124.247 8.60059 124.712 8.75704 125.072 8.91822C125.442 9.06993 125.759 9.29748 126.025 9.60089C126.29 9.9043 126.428 10.3073 126.437 10.8098C126.437 11.2554 126.314 11.6536 126.068 12.0044C125.821 12.3553 125.47 12.6302 125.015 12.8293C124.569 13.0284 124.043 13.128 123.436 13.128ZM137.701 3.11556V4.43822H135.069V13H133.448V4.43822H130.803V3.11556H137.701ZM146.24 8.88978C146.24 9.1837 146.221 9.44919 146.183 9.68622H140.196C140.243 10.312 140.476 10.8145 140.893 11.1938C141.31 11.573 141.822 11.7627 142.429 11.7627C143.301 11.7627 143.917 11.3976 144.278 10.6676H146.027C145.79 11.3881 145.358 11.9807 144.733 12.4453C144.116 12.9004 143.348 13.128 142.429 13.128C141.68 13.128 141.006 12.9621 140.409 12.6302C139.821 12.2889 139.357 11.8148 139.015 11.208C138.684 10.5917 138.518 9.88059 138.518 9.07467C138.518 8.26874 138.679 7.56237 139.001 6.95556C139.333 6.33926 139.793 5.86519 140.381 5.53334C140.978 5.20148 141.661 5.03556 142.429 5.03556C143.168 5.03556 143.827 5.19674 144.406 5.51911C144.984 5.84148 145.434 6.29659 145.757 6.88445C146.079 7.46282 146.24 8.13126 146.24 8.88978ZM144.548 8.37778C144.538 7.78045 144.325 7.30163 143.908 6.94133C143.491 6.58104 142.974 6.40089 142.358 6.40089C141.798 6.40089 141.319 6.58104 140.921 6.94133C140.523 7.29215 140.286 7.77096 140.21 8.37778H144.548ZM147.011 9.04622C147.011 8.25926 147.172 7.56237 147.494 6.95556C147.826 6.34874 148.272 5.87941 148.831 5.54756C149.4 5.20622 150.026 5.03556 150.709 5.03556C151.325 5.03556 151.861 5.15882 152.316 5.40534C152.78 5.64237 153.15 5.94104 153.425 6.30134V5.16356H155.061V13H153.425V11.8338C153.15 12.2036 152.776 12.5117 152.302 12.7582C151.828 13.0047 151.287 13.128 150.68 13.128C150.007 13.128 149.391 12.9573 148.831 12.616C148.272 12.2652 147.826 11.7816 147.494 11.1653C147.172 10.5396 147.011 9.83319 147.011 9.04622ZM153.425 9.07467C153.425 8.53422 153.311 8.06489 153.084 7.66667C152.866 7.26845 152.577 6.96504 152.216 6.75645C151.856 6.54785 151.467 6.44356 151.05 6.44356C150.633 6.44356 150.244 6.54785 149.884 6.75645C149.524 6.95556 149.23 7.25422 149.002 7.65245C148.784 8.04119 148.675 8.50578 148.675 9.04622C148.675 9.58667 148.784 10.0607 149.002 10.4684C149.23 10.8761 149.524 11.189 149.884 11.4071C150.254 11.6157 150.642 11.72 151.05 11.72C151.467 11.72 151.856 11.6157 152.216 11.4071C152.577 11.1985 152.866 10.8951 153.084 10.4969C153.311 10.0892 153.425 9.61511 153.425 9.07467ZM166.392 5.03556C167.008 5.03556 167.558 5.16356 168.042 5.41956C168.535 5.67556 168.919 6.05482 169.194 6.55734C169.478 7.05985 169.62 7.66667 169.62 8.37778V13H168.013V8.61956C168.013 7.91793 167.838 7.38222 167.487 7.01245C167.136 6.63319 166.658 6.44356 166.051 6.44356C165.444 6.44356 164.96 6.63319 164.6 7.01245C164.249 7.38222 164.074 7.91793 164.074 8.61956V13H162.467V8.61956C162.467 7.91793 162.291 7.38222 161.94 7.01245C161.59 6.63319 161.111 6.44356 160.504 6.44356C159.897 6.44356 159.414 6.63319 159.053 7.01245C158.703 7.38222 158.527 7.91793 158.527 8.61956V13H156.906V5.16356H158.527V6.05956C158.793 5.73719 159.129 5.48593 159.537 5.30578C159.945 5.12563 160.381 5.03556 160.845 5.03556C161.471 5.03556 162.031 5.1683 162.524 5.43378C163.017 5.69926 163.396 6.08326 163.661 6.58578C163.898 6.11171 164.268 5.73719 164.771 5.46222C165.273 5.17778 165.814 5.03556 166.392 5.03556ZM37.1191 19.1156V25.416C37.1191 26.165 37.3135 26.7292 37.7022 27.1084C38.1004 27.4877 38.6503 27.6773 39.352 27.6773C40.0631 27.6773 40.613 27.4877 41.0018 27.1084C41.4 26.7292 41.5991 26.165 41.5991 25.416V19.1156H43.2204V25.3876C43.2204 26.1935 43.045 26.8761 42.6942 27.4356C42.3434 27.995 41.8741 28.4121 41.2862 28.6871C40.6983 28.9621 40.0489 29.0996 39.3378 29.0996C38.6266 29.0996 37.9772 28.9621 37.3893 28.6871C36.8109 28.4121 36.3511 27.995 36.0098 27.4356C35.6684 26.8761 35.4978 26.1935 35.4978 25.3876V19.1156H37.1191ZM53.1679 29H51.5465L46.6683 21.6187V29H45.047V19.1013H46.6683L51.5465 26.4684V19.1013H53.1679V29ZM56.6339 19.1156V29H55.0125V19.1156H56.6339ZM66.9972 19.1156L63.2852 29H61.4079L57.6816 19.1156H59.4167L62.3465 27.336L65.2905 19.1156H66.9972ZM69.69 20.424V23.3253H73.1033V24.648H69.69V27.6773H73.53V29H68.0686V19.1013H73.53V20.424H69.69ZM80.3767 29L78.1012 25.0462H76.8639V29H75.2425V19.1156H78.6559C79.4144 19.1156 80.0544 19.2483 80.5759 19.5138C81.1068 19.7793 81.5003 20.1348 81.7563 20.5804C82.0218 21.0261 82.1545 21.5239 82.1545 22.0738C82.1545 22.7185 81.9649 23.3064 81.5856 23.8373C81.2159 24.3588 80.6422 24.7144 79.8647 24.904L82.311 29H80.3767ZM76.8639 23.752H78.6559C79.2627 23.752 79.7178 23.6003 80.0212 23.2969C80.3341 22.9935 80.4905 22.5858 80.4905 22.0738C80.4905 21.5618 80.3388 21.1636 80.0354 20.8791C79.732 20.5852 79.2721 20.4382 78.6559 20.4382H76.8639V23.752ZM87.2011 29.0996C86.5374 29.0996 85.94 28.9858 85.4091 28.7582C84.8781 28.5212 84.4609 28.1893 84.1575 27.7627C83.8541 27.336 83.7024 26.8382 83.7024 26.2693H85.4375C85.4754 26.696 85.6414 27.0468 85.9353 27.3218C86.2387 27.5967 86.6606 27.7342 87.2011 27.7342C87.7605 27.7342 88.1966 27.6015 88.5095 27.336C88.8224 27.061 88.9788 26.7102 88.9788 26.2836C88.9788 25.9517 88.8793 25.6815 88.6802 25.4729C88.4906 25.2643 88.2488 25.1031 87.9548 24.9893C87.6704 24.8756 87.2722 24.7523 86.7602 24.6196C86.1154 24.4489 85.5892 24.2782 85.1815 24.1076C84.7833 23.9274 84.442 23.6524 84.1575 23.2827C83.8731 22.9129 83.7309 22.4199 83.7309 21.8036C83.7309 21.2347 83.8731 20.7369 84.1575 20.3102C84.442 19.8836 84.8402 19.5564 85.3522 19.3289C85.8642 19.1013 86.4568 18.9876 87.13 18.9876C88.0876 18.9876 88.8698 19.2293 89.4766 19.7129C90.0929 20.187 90.4343 20.8412 90.5006 21.6756H88.7086C88.6802 21.3153 88.5095 21.0071 88.1966 20.7511C87.8837 20.4951 87.4713 20.3671 86.9593 20.3671C86.4947 20.3671 86.1154 20.4856 85.8215 20.7227C85.5276 20.9597 85.3806 21.301 85.3806 21.7467C85.3806 22.0501 85.4707 22.3013 85.6509 22.5004C85.8405 22.6901 86.0775 22.8418 86.362 22.9556C86.6464 23.0693 87.0351 23.1926 87.5282 23.3253C88.1824 23.5055 88.7134 23.6856 89.1211 23.8658C89.5383 24.0459 89.8891 24.3256 90.1735 24.7049C90.4674 25.0747 90.6144 25.5724 90.6144 26.1982C90.6144 26.7007 90.4769 27.1748 90.202 27.6204C89.9365 28.0661 89.543 28.4264 89.0215 28.7013C88.5095 28.9668 87.9027 29.0996 87.2011 29.0996ZM93.8644 19.1156V29H92.2431V19.1156H93.8644ZM102.094 19.1156V20.4382H99.4633V29H97.842V20.4382H95.1966V19.1156H102.094ZM110.776 19.1156L107.505 25.416V29H105.884V25.416L102.599 19.1156H104.405L106.695 23.9653L108.984 19.1156H110.776Z" fill="white"/>
<defs>
<clipPath id="clip0_1261_8179">
<rect width="24.2036" height="30.72" fill="white" transform="translate(0 0.639893)"/>
</clipPath>
</defs>
</svg>
