<svg width="40" height="40" viewBox="0 0 40 40" fill="none" xmlns="http://www.w3.org/2000/svg">
<path d="M0.000488281 8.66958C0.000488281 3.8815 3.88532 0 8.67751 0H31.2998C36.092 0 39.9768 3.8815 39.9768 8.66958V31.2723C39.9768 36.0604 36.092 39.942 31.2998 39.942H8.67751C3.88532 39.942 0.000488281 36.0604 0.000488281 31.2724V8.66958Z" fill="white"/>
<path d="M0.000488281 8.66958C0.000488281 3.88165 3.88532 0 8.67751 0H31.2998C36.092 0 39.9768 3.88165 39.9768 8.66958V11.733H0.000488281V8.66958Z" fill="#CF74A2"/>
<path d="M12.3882 9.28363L14.3064 3.9585H15.5336L17.4518 9.28363H16.3836L15.9698 8.05394H13.8702L13.4527 9.28379L12.3882 9.28363ZM14.1143 7.28963H15.7222L15.1345 5.55385C15.0608 5.32733 14.9955 5.09821 14.9385 4.86694H14.9016C14.8424 5.09797 14.7758 5.32705 14.702 5.55385L14.1143 7.28963ZM18.3834 9.28363V3.96237H20.4014C20.803 3.96237 21.1431 4.02878 21.4216 4.16177C21.7 4.29227 21.9108 4.47929 22.0536 4.72312C22.1965 4.9668 22.2681 5.24995 22.2681 5.57243C22.2681 5.89754 22.1965 6.18426 22.0536 6.43289C21.9131 6.68152 21.7013 6.87364 21.4179 7.00895C21.1369 7.14441 20.7981 7.21207 20.4014 7.21207H19.3517V9.28394H18.3834V9.28363ZM20.3164 6.41059C20.5258 6.41059 20.7033 6.37731 20.8486 6.31089C20.9966 6.24432 21.1098 6.14958 21.1887 6.0265C21.27 5.90342 21.3106 5.75202 21.3106 5.57228C21.3106 5.39734 21.2713 5.2498 21.1924 5.12904C21.1136 5.00844 20.999 4.91741 20.8486 4.8558C20.7008 4.79434 20.5234 4.76353 20.3164 4.76353H19.3517V6.41059H20.3164ZM23.2918 9.28363V3.95865H25.5686C25.9259 3.95865 26.2314 4.01903 26.4853 4.13947C26.7391 4.26023 26.9326 4.43254 27.0655 4.65655C27.1986 4.88057 27.2653 5.14267 27.2653 5.44316C27.2653 5.65495 27.227 5.84692 27.1506 6.01922C27.079 6.18854 26.9658 6.33713 26.8216 6.45131C26.6763 6.56463 26.5026 6.64467 26.3006 6.69127V6.721C26.5863 6.78246 26.8007 6.91792 26.9436 7.12723C27.0889 7.33638 27.1666 7.62449 27.1765 7.9914V8.08367C27.1789 8.11076 27.1814 8.14033 27.1839 8.17222C27.1937 8.43819 27.2135 8.65122 27.2429 8.81114C27.2725 8.96874 27.3108 9.09909 27.3576 9.20266V9.28379H26.3633C26.3215 9.18285 26.2882 9.06101 26.2635 8.91827C26.2389 8.77553 26.218 8.59084 26.2006 8.36435L26.1933 8.23508L26.1859 8.09838C26.1785 7.85965 26.1403 7.67264 26.0714 7.53702C26.0048 7.40171 25.9062 7.30697 25.7756 7.25278C25.645 7.19612 25.475 7.16779 25.2655 7.16779H24.2898V9.28394H23.2918V9.28363ZM25.3986 6.3626C25.576 6.3626 25.7288 6.33303 25.8569 6.27389C25.9838 6.21814 26.0899 6.12382 26.16 6.00436C26.2339 5.88129 26.271 5.73235 26.271 5.55757C26.271 5.38031 26.2327 5.23246 26.1563 5.11434C26.0842 4.9977 25.9767 4.90711 25.8495 4.8558C25.7214 4.80161 25.5711 4.77452 25.3986 4.77452H24.2898V6.3626H25.3986Z" fill="#CBCBCB"/>
<path d="M12.3882 8.97333L14.3064 3.64819H15.5336L17.4518 8.97333H16.3836L15.9698 7.74364H13.8702L13.4527 8.97348L12.3882 8.97333ZM14.1143 6.97933H15.7222L15.1345 5.24355C15.0608 5.01702 14.9955 4.7879 14.9385 4.55664H14.9016C14.8424 4.78767 14.7758 5.01675 14.702 5.24355L14.1143 6.97933ZM18.3834 8.97333V3.65206H20.4014C20.803 3.65206 21.1431 3.71848 21.4216 3.85146C21.7 3.98197 21.9108 4.16899 22.0536 4.41282C22.1965 4.6565 22.2681 4.93965 22.2681 5.26213C22.2681 5.58724 22.1965 5.87395 22.0536 6.12258C21.9131 6.37122 21.7013 6.56334 21.4179 6.69865C21.1369 6.83411 20.7981 6.90176 20.4014 6.90176H19.3517V8.97364H18.3834V8.97333ZM20.3164 6.10029C20.5258 6.10029 20.7033 6.06701 20.8486 6.00059C20.9966 5.93402 21.1098 5.83928 21.1887 5.7162C21.27 5.59312 21.3106 5.44171 21.3106 5.26197C21.3106 5.08703 21.2713 4.9395 21.1924 4.81874C21.1136 4.69814 20.999 4.60711 20.8486 4.54549C20.7008 4.48403 20.5234 4.45323 20.3164 4.45323H19.3517V6.10029H20.3164ZM23.2918 8.97333V3.64835H25.5686C25.9259 3.64835 26.2314 3.70873 26.4853 3.82917C26.7391 3.94993 26.9326 4.12223 27.0655 4.34625C27.1986 4.57027 27.2653 4.83237 27.2653 5.13286C27.2653 5.34464 27.227 5.53661 27.1506 5.70892C27.079 5.87824 26.9658 6.02683 26.8216 6.14101C26.6763 6.25433 26.5026 6.33437 26.3006 6.38097V6.41069C26.5863 6.47215 26.8007 6.60762 26.9436 6.81693C27.0889 7.02608 27.1666 7.31419 27.1765 7.6811V7.77337C27.1789 7.80046 27.1814 7.83003 27.1839 7.86192C27.1937 8.12789 27.2135 8.34091 27.2429 8.50084C27.2725 8.65844 27.3108 8.78879 27.3576 8.89236V8.97348H26.3633C26.3215 8.87255 26.2882 8.75071 26.2635 8.60797C26.2389 8.46523 26.218 8.28054 26.2006 8.05404L26.1933 7.92477L26.1859 7.78807C26.1785 7.54935 26.1403 7.36233 26.0714 7.22672C26.0048 7.09141 25.9062 6.99666 25.7756 6.94248C25.645 6.88582 25.475 6.85749 25.2655 6.85749H24.2898V8.97364H23.2918V8.97333ZM25.3986 6.0523C25.576 6.0523 25.7288 6.02273 25.8569 5.96359C25.9838 5.90784 26.0899 5.81352 26.16 5.69406C26.2339 5.57098 26.271 5.42205 26.271 5.24727C26.271 5.07 26.2327 4.92216 26.1563 4.80403C26.0842 4.68739 25.9767 4.59681 25.8495 4.54549C25.7214 4.49131 25.5711 4.46422 25.3986 4.46422H24.2898V6.0523H25.3986Z" fill="white"/>
<path d="M14.5117 33.4847C13.0877 33.4847 11.8745 33.1507 10.872 32.483C9.86948 31.8074 9.10977 30.8336 8.59271 29.5618C8.0755 28.29 7.81689 26.7558 7.81689 24.9594V24.2917C7.81689 22.4873 8.0755 20.9492 8.59256 19.6774C9.10977 18.3976 9.86545 17.4238 10.8601 16.7561C11.8626 16.0805 13.0758 15.7427 14.4998 15.7427C15.9239 15.7427 17.1331 16.0765 18.1275 16.7442C19.122 17.4119 19.8738 18.3857 20.3829 19.6655C20.8921 20.9452 21.1468 22.4873 21.1468 24.2917V24.9594C21.1468 26.7558 20.8921 28.2939 20.3829 29.5738C19.8738 30.8456 19.122 31.8153 18.1275 32.483C17.141 33.1507 15.9358 33.4847 14.5117 33.4847ZM14.5236 30.8257C15.2953 30.8257 15.9358 30.615 16.445 30.1938C16.962 29.7645 17.3478 29.1325 17.6024 28.2979C17.865 27.4554 17.9963 26.414 17.9963 25.1741V24.0771C17.9963 22.837 17.865 21.7957 17.6024 20.9531C17.3399 20.1106 16.9501 19.4746 16.433 19.0455C15.9239 18.6162 15.2833 18.4016 14.5117 18.4016C13.7478 18.4016 13.1035 18.6162 12.5784 19.0455C12.0533 19.4667 11.6555 20.0987 11.385 20.9412C11.1225 21.7838 10.9913 22.8291 10.9913 24.0771V25.1741C10.9913 26.4061 11.1266 27.4435 11.3969 28.286C11.6675 29.1206 12.0614 29.7526 12.5784 30.1819C13.1035 30.611 13.7518 30.8257 14.5236 30.8257ZM28.0683 33.2103V19.8682H27.9369C27.3881 20.3769 26.7556 20.7823 26.0396 21.0844C25.3236 21.3784 24.5319 21.5693 23.6647 21.6566V18.974C24.3648 18.8784 25.0172 18.6917 25.6218 18.4135C26.2345 18.1273 26.7794 17.7816 27.2567 17.3761C27.742 16.9628 28.1597 16.5098 28.5097 16.0169H31.171V33.2103H28.0683Z" fill="#AF5883"/>
<path d="M14.5117 32.866C13.0877 32.866 11.8745 32.5321 10.872 31.8644C9.86948 31.1888 9.10977 30.215 8.59271 28.9432C8.0755 27.6714 7.81689 26.1372 7.81689 24.3407V23.673C7.81689 21.8686 8.0755 20.3306 8.59256 19.0588C9.10977 17.7789 9.86545 16.8051 10.8601 16.1374C11.8626 15.4618 13.0758 15.124 14.4998 15.124C15.9239 15.124 17.1331 15.4578 18.1275 16.1255C19.122 16.7932 19.8738 17.767 20.3829 19.0469C20.8921 20.3265 21.1468 21.8686 21.1468 23.673V24.3407C21.1468 26.1372 20.8921 27.6753 20.3829 28.9551C19.8738 30.2269 19.122 31.1967 18.1275 31.8644C17.141 32.5321 15.9358 32.866 14.5117 32.866ZM14.5236 30.2071C15.2953 30.2071 15.9358 29.9964 16.445 29.5751C16.962 29.1458 17.3478 28.5139 17.6024 27.6793C17.865 26.8368 17.9963 25.7953 17.9963 24.5554V23.4584C17.9963 22.2184 17.865 21.1771 17.6024 20.3344C17.3399 19.4919 16.9501 18.856 16.433 18.4268C15.9239 17.9975 15.2833 17.783 14.5117 17.783C13.7478 17.783 13.1035 17.9975 12.5784 18.4268C12.0533 18.8481 11.6555 19.48 11.385 20.3225C11.1225 21.1652 10.9913 22.2105 10.9913 23.4584V24.5554C10.9913 25.7875 11.1266 26.8249 11.3969 27.6674C11.6675 28.502 12.0614 29.1339 12.5784 29.5632C13.1035 29.9924 13.7518 30.2071 14.5236 30.2071ZM28.0683 32.5917V19.2495H27.9369C27.3881 19.7582 26.7556 20.1637 26.0396 20.4657C25.3236 20.7597 24.5319 20.9506 23.6647 21.0379V18.3553C24.3648 18.2598 25.0172 18.0731 25.6218 17.7949C26.2345 17.5086 26.7794 17.1629 27.2567 16.7575C27.742 16.3441 28.1597 15.8911 28.5097 15.3982H31.171V32.5917H28.0683Z" fill="#CF74A2"/>
<path fill-rule="evenodd" clip-rule="evenodd" d="M0.0239258 28.6216V31.3305C0.0239258 36.1186 3.90875 40.0001 8.70095 40.0001H31.3232C36.1154 40.0001 40.0002 36.1186 40.0002 31.3307V28.6216C40.0002 33.4097 36.1154 37.2912 31.3232 37.2912H8.70095C3.90875 37.2912 0.0239258 33.4097 0.0239258 28.6216Z" fill="black" fill-opacity="0.2"/>
<path fill-rule="evenodd" clip-rule="evenodd" d="M8.70095 0.0578613C3.90875 0.0578613 0.0239258 3.93951 0.0239258 8.72744V8.95595C0.49264 4.6097 4.17604 1.22562 8.65059 1.22562H31.3232C36.1154 1.22562 40.0002 5.10712 40.0002 9.8952V8.7276C40.0002 3.93951 36.1154 0.0580161 31.3232 0.0580161L8.70095 0.0578613Z" fill="white" fill-opacity="0.3"/>
</svg>
