<svg width="40" height="40" viewBox="0 0 40 40" fill="none" xmlns="http://www.w3.org/2000/svg">
<path d="M0.00113159 8.68215C0.00113159 3.88712 3.88804 0 8.68281 0H31.317C36.1118 0 39.9989 3.88712 39.9989 8.68215V31.3177C39.9989 36.1128 36.1118 39.9999 31.317 39.9999H8.68266C3.88804 39.9999 0.000976562 36.1128 0.000976562 31.3177L0.00113159 8.68215Z" fill="#2797CF"/>
<path d="M19.6074 28.1153C41.7359 14.7839 17.8657 29.1964 39.994 15.865V32.0614L36.5539 38.4843L19.6074 28.1153Z" fill="#FFFFFE" fill-opacity="0.4"/>
<path d="M0 31.0191V15.6934L35.6333 37.3888L32.8507 39.1904L3.21765 37.4466L0 31.0191Z" fill="#FFFFFE" fill-opacity="0.4"/>
<path opacity="0.1" fill-rule="evenodd" clip-rule="evenodd" d="M0.00113159 11.4532V9.24463L19.9997 21.5466L40.0003 9.27145V11.48L19.9999 23.7551L0.00113159 11.4532Z" fill="black"/>
<path d="M20.0578 21.4409L0.000976562 9.24494V8.7499C0.000976562 3.91751 3.93207 0 8.78126 0H31.2183C36.1126 0 40.0621 3.9879 39.998 8.86478L39.9928 9.24494L20.0578 21.4409Z" fill="#FFFFFE" fill-opacity="0.4"/>
<path d="M0.0988749 7.90381L19.9992 20.1073L39.9114 7.91528L39.9731 8.75699V9.42132L19.9992 21.6506L0.0253906 9.42117V8.67962L0.0988749 7.90381Z" fill="#B1DAEE"/>
<path d="M19.9992 27.7837L0.0253906 15.5544V17.0975L33.3235 37.4939L34.2304 37.2285L34.9254 36.9333L21.2506 28.5606L39.9731 17.0975V15.5544L19.9992 27.7837Z" fill="#B1DAEE"/>
<path fill-rule="evenodd" clip-rule="evenodd" d="M0.000976562 28.6047V31.3178C0.000976562 36.1128 3.88789 39.9999 8.68266 39.9999H31.317C36.1118 39.9999 39.9987 36.1128 39.9987 31.3178V28.6047C39.9987 33.3998 36.1118 37.2869 31.317 37.2869H8.68266C3.88789 37.2869 0.000976562 33.3998 0.000976562 28.6047Z" fill="#2797CF"/>
<path fill-rule="evenodd" clip-rule="evenodd" d="M8.68266 0C3.88789 0 0.000976562 3.88712 0.000976562 8.68215V8.91098C0.469787 4.55813 4.15532 1.16945 8.63227 1.16945H31.3172C36.112 1.16945 39.9989 5.05658 39.9989 9.8516V8.68215C39.9989 3.88712 36.112 0 31.3172 0H8.68266Z" fill="white" fill-opacity="0.3"/>
</svg>
