<svg width="40" height="40" viewBox="0 0 40 40" fill="none" xmlns="http://www.w3.org/2000/svg">
<mask id="mask0_635_1138" style="mask-type:luminance" maskUnits="userSpaceOnUse" x="0" y="0" width="41" height="40">
<path d="M0.000488281 0H40.0005V40H0.000488281V0Z" fill="white"/>
</mask>
<g mask="url(#mask0_635_1138)">
<path d="M0.000643318 8.68217C0.000643318 3.88713 3.88778 0 8.68281 0H31.3183C36.1134 0 40.0005 3.88713 40.0005 8.68217V31.3177C40.0005 36.1127 36.1134 40 31.3183 40H8.68266C3.88778 40 0.000488281 36.1127 0.000488281 31.3178L0.000643318 8.68217Z" fill="#FFFFFE"/>
<path d="M22.0845 0H31.318C36.113 0 40.0001 3.88713 40.0001 8.68217V17.9166H25.8054C23.7504 17.9166 22.0845 16.2507 22.0845 14.1957V0Z" fill="#EF5A3C"/>
<path d="M22.0845 0L40.0011 17.9166H24.9415C23.3635 17.9166 22.0845 16.6374 22.0845 15.0594V0Z" fill="white"/>
<path d="M23.0131 0.00146484L40.0004 16.9965V17.9494L22.0796 0.00146484H23.0131Z" fill="#C24228"/>
<path fill-rule="evenodd" clip-rule="evenodd" d="M0.0239258 28.6628V31.3757C0.0239258 36.1707 3.91106 40.0579 8.7061 40.0579H31.3418C36.1368 40.0579 40.0239 36.1707 40.0239 31.3757V28.6628C40.0239 33.4579 36.1368 37.345 31.3418 37.345H8.7061C3.91106 37.345 0.0239258 33.4579 0.0239258 28.6628Z" fill="#CCCCCB"/>
<path fill-rule="evenodd" clip-rule="evenodd" d="M8.7061 0.0578613C3.91106 0.0578613 0.0239258 3.94499 0.0239258 8.74003V8.96887C0.492763 4.61631 4.17834 1.22732 8.65571 1.22732H31.3418C36.1368 1.22732 40.0239 5.11445 40.0239 9.90949V8.74003C40.0239 3.94499 36.1368 0.0578613 31.3418 0.0578613H8.7061Z" fill="white" fill-opacity="0.3"/>
<path fill-rule="evenodd" clip-rule="evenodd" d="M22.0203 0.00146484V15.0751C22.0203 16.6591 23.3045 17.9433 24.8885 17.9433H40.0589V19.0286H24.8885C22.7051 19.0286 20.9351 17.2585 20.9351 15.0751V0.00146484H22.0203Z" fill="#CCCCCB"/>
</g>
</svg>
