<svg width="40" height="40" viewBox="0 0 40 40" fill="none" xmlns="http://www.w3.org/2000/svg">
<mask id="mask0_635_1149" style="mask-type:luminance" maskUnits="userSpaceOnUse" x="0" y="0" width="41" height="40">
<path d="M31.3183 0H8.68266C3.88763 0 0.000488281 3.88714 0.000488281 8.68217V31.3178C0.000488281 36.1129 3.88763 40 8.68266 40H31.3183C36.1133 40 40.0005 36.1129 40.0005 31.3178V8.68217C40.0005 3.88714 36.1133 0 31.3183 0Z" fill="white"/>
</mask>
<g mask="url(#mask0_635_1149)">
<path d="M0.000643318 8.68217C0.000643318 3.88713 3.88778 0 8.68281 0H31.3183C36.1134 0 40.0005 3.88713 40.0005 8.68217V31.3177C40.0005 36.1127 36.1134 40 31.3183 40H8.68266C3.88778 40 0.000488281 36.1127 0.000488281 31.3178L0.000643318 8.68217Z" fill="#00A05E"/>
<path d="M0.000488281 29.375H39.5837" stroke="#00804B" stroke-width="1.16667" stroke-linecap="round"/>
<path d="M5.23286 16.25C5.23286 15.6613 4.75564 15.1841 4.16697 15.1841C3.57829 15.1841 3.10107 15.6613 3.10107 16.25V24.1666C3.10107 24.7552 3.57829 25.2325 4.16697 25.2325C4.75564 25.2325 5.23286 24.7552 5.23286 24.1666V16.25Z" stroke="#19C77F" stroke-width="0.651163"/>
<path d="M3.33447 16.2498C3.33447 16.0288 3.42227 15.8169 3.57855 15.6606C3.73483 15.5043 3.94679 15.4165 4.16781 15.4165C4.38882 15.4165 4.60078 15.5043 4.75706 15.6606C4.91334 15.8169 5.00114 16.0288 5.00114 16.2498V24.1664C5.00114 24.3874 4.91334 24.5994 4.75706 24.7557C4.60078 24.912 4.38882 24.9998 4.16781 24.9998C3.94679 24.9998 3.73483 24.912 3.57855 24.7557C3.42227 24.5994 3.33447 24.3874 3.33447 24.1664V16.2498Z" fill="black" fill-opacity="0.5"/>
<mask id="mask1_635_1149" style="mask-type:luminance" maskUnits="userSpaceOnUse" x="3" y="15" width="2" height="11">
<path d="M3.3335 16.2506C3.3335 16.0296 3.42129 15.8176 3.57757 15.6613C3.73385 15.505 3.94582 15.4172 4.16683 15.4172C4.38784 15.4172 4.5998 15.505 4.75608 15.6613C4.91237 15.8176 5.00016 16.0296 5.00016 16.2506V24.1672C5.00016 24.3882 4.91237 24.6001 4.75608 24.7564C4.5998 24.9127 4.38784 25.0005 4.16683 25.0005C3.94582 25.0005 3.73385 24.9127 3.57757 24.7564C3.42129 24.6001 3.3335 24.3882 3.3335 24.1672V16.2506Z" fill="white"/>
</mask>
<g mask="url(#mask1_635_1149)">
<path d="M3.02393 16.2499C3.02393 15.9466 3.14439 15.6558 3.35882 15.4413C3.57325 15.2269 3.86409 15.1064 4.16734 15.1064C4.47059 15.1064 4.76142 15.2269 4.97585 15.4413C5.19028 15.6558 5.31075 15.9466 5.31075 16.2499H4.69059C4.69059 16.1111 4.63546 15.978 4.53733 15.8799C4.4392 15.7817 4.30611 15.7266 4.16734 15.7266C4.02856 15.7266 3.89547 15.7817 3.79734 15.8799C3.69921 15.978 3.64408 16.1111 3.64408 16.2499H3.02393ZM5.31075 24.1664C5.31075 24.4697 5.19028 24.7605 4.97585 24.975C4.76142 25.1894 4.47059 25.3099 4.16734 25.3099C3.86409 25.3099 3.57325 25.1894 3.35882 24.975C3.14439 24.7605 3.02393 24.4697 3.02393 24.1664H3.64408C3.64408 24.3052 3.69921 24.4383 3.79734 24.5364C3.89547 24.6346 4.02856 24.6897 4.16734 24.6897C4.30611 24.6897 4.4392 24.6346 4.53733 24.5364C4.63546 24.4383 4.69059 24.3052 4.69059 24.1664H5.31075ZM4.16734 25.3099C3.86409 25.3099 3.57325 25.1894 3.35882 24.975C3.14439 24.7605 3.02393 24.4697 3.02393 24.1664V16.2499C3.02393 15.9466 3.14439 15.6558 3.35882 15.4413C3.57325 15.2269 3.86409 15.1064 4.16734 15.1064V15.7266C4.02856 15.7266 3.89547 15.7817 3.79734 15.8799C3.69921 15.978 3.64408 16.1111 3.64408 16.2499V24.1664C3.64408 24.3052 3.69921 24.4383 3.79734 24.5364C3.89547 24.6346 4.02856 24.6897 4.16734 24.6897V25.3099ZM4.16734 15.1064C4.31749 15.1064 4.46618 15.136 4.6049 15.1935C4.74363 15.2509 4.86967 15.3352 4.97585 15.4413C5.08203 15.5475 5.16625 15.6736 5.22371 15.8123C5.28117 15.951 5.31075 16.0997 5.31075 16.2499V24.1664C5.31075 24.4697 5.19028 24.7605 4.97585 24.975C4.76142 25.1894 4.47059 25.3099 4.16734 25.3099V24.6897C4.30611 24.6897 4.4392 24.6346 4.53733 24.5364C4.63546 24.4383 4.69059 24.3052 4.69059 24.1664V16.2499C4.69059 16.1111 4.63546 15.978 4.53733 15.8799C4.4392 15.7817 4.30611 15.7266 4.16734 15.7266V15.1064Z" fill="#1B271D"/>
</g>
<path d="M8.6059 16.25C8.6059 15.6613 8.12869 15.1841 7.54001 15.1841C6.95134 15.1841 6.47412 15.6613 6.47412 16.25V24.1666C6.47412 24.7552 6.95134 25.2325 7.54001 25.2325C8.12869 25.2325 8.6059 24.7552 8.6059 24.1666V16.25Z" stroke="#19C77F" stroke-width="0.651163"/>
<path d="M6.70557 16.2498C6.70557 16.0288 6.79336 15.8169 6.94964 15.6606C7.10592 15.5043 7.31789 15.4165 7.5389 15.4165C7.75991 15.4165 7.97187 15.5043 8.12816 15.6606C8.28444 15.8169 8.37223 16.0288 8.37223 16.2498V24.1664C8.37223 24.3874 8.28444 24.5994 8.12816 24.7557C7.97187 24.912 7.75991 24.9998 7.5389 24.9998C7.31789 24.9998 7.10592 24.912 6.94964 24.7557C6.79336 24.5994 6.70557 24.3874 6.70557 24.1664V16.2498Z" fill="black" fill-opacity="0.5"/>
<mask id="mask2_635_1149" style="mask-type:luminance" maskUnits="userSpaceOnUse" x="6" y="15" width="3" height="11">
<path d="M6.70654 16.2506C6.70654 16.0296 6.79434 15.8176 6.95062 15.6613C7.1069 15.505 7.31886 15.4172 7.53988 15.4172C7.76089 15.4172 7.97285 15.505 8.12913 15.6613C8.28541 15.8176 8.37321 16.0296 8.37321 16.2506V24.1672C8.37321 24.3882 8.28541 24.6001 8.12913 24.7564C7.97285 24.9127 7.76089 25.0005 7.53988 25.0005C7.31886 25.0005 7.1069 24.9127 6.95062 24.7564C6.79434 24.6001 6.70654 24.3882 6.70654 24.1672V16.2506Z" fill="white"/>
</mask>
<g mask="url(#mask2_635_1149)">
<path d="M6.396 16.2499C6.396 15.9466 6.51646 15.6558 6.73089 15.4413C6.94532 15.2269 7.23616 15.1064 7.53941 15.1064C7.84266 15.1064 8.13349 15.2269 8.34792 15.4413C8.56235 15.6558 8.68282 15.9466 8.68282 16.2499H8.06266C8.06266 16.1111 8.00753 15.978 7.9094 15.8799C7.81128 15.7817 7.67818 15.7266 7.53941 15.7266C7.40063 15.7266 7.26754 15.7817 7.16941 15.8799C7.07128 15.978 7.01615 16.1111 7.01615 16.2499H6.396ZM8.68282 24.1664C8.68282 24.4697 8.56235 24.7605 8.34792 24.975C8.13349 25.1894 7.84266 25.3099 7.53941 25.3099C7.23616 25.3099 6.94532 25.1894 6.73089 24.975C6.51646 24.7605 6.396 24.4697 6.396 24.1664H7.01615C7.01615 24.3052 7.07128 24.4383 7.16941 24.5364C7.26754 24.6346 7.40063 24.6897 7.53941 24.6897C7.67818 24.6897 7.81128 24.6346 7.9094 24.5364C8.00753 24.4383 8.06266 24.3052 8.06266 24.1664H8.68282ZM7.53941 25.3099C7.23616 25.3099 6.94532 25.1894 6.73089 24.975C6.51646 24.7605 6.396 24.4697 6.396 24.1664V16.2499C6.396 15.9466 6.51646 15.6558 6.73089 15.4413C6.94532 15.2269 7.23616 15.1064 7.53941 15.1064V15.7266C7.40063 15.7266 7.26754 15.7817 7.16941 15.8799C7.07128 15.978 7.01615 16.1111 7.01615 16.2499V24.1664C7.01615 24.3052 7.07128 24.4383 7.16941 24.5364C7.26754 24.6346 7.40063 24.6897 7.53941 24.6897V25.3099ZM7.53941 15.1064C7.84266 15.1064 8.13349 15.2269 8.34792 15.4413C8.56235 15.6558 8.68282 15.9466 8.68282 16.2499V24.1664C8.68282 24.4697 8.56235 24.7605 8.34792 24.975C8.13349 25.1894 7.84266 25.3099 7.53941 25.3099V24.6897C7.67818 24.6897 7.81128 24.6346 7.9094 24.5364C8.00753 24.4383 8.06266 24.3052 8.06266 24.1664V16.2499C8.06266 16.1111 8.00753 15.978 7.9094 15.8799C7.81128 15.7817 7.67818 15.7266 7.53941 15.7266V15.1064Z" fill="#1B271D"/>
</g>
<path d="M11.977 16.25C11.977 15.6613 11.4998 15.1841 10.9111 15.1841C10.3224 15.1841 9.84521 15.6613 9.84521 16.25V24.1666C9.84521 24.7552 10.3224 25.2325 10.9111 25.2325C11.4998 25.2325 11.977 24.7552 11.977 24.1666V16.25Z" stroke="#19C77F" stroke-width="0.651163"/>
<path d="M10.0776 16.2498C10.0776 16.0288 10.1654 15.8169 10.3217 15.6606C10.478 15.5043 10.69 15.4165 10.911 15.4165C11.132 15.4165 11.3439 15.5043 11.5002 15.6606C11.6565 15.8169 11.7443 16.0288 11.7443 16.2498V24.1664C11.7443 24.3874 11.6565 24.5994 11.5002 24.7557C11.3439 24.912 11.132 24.9998 10.911 24.9998C10.69 24.9998 10.478 24.912 10.3217 24.7557C10.1654 24.5994 10.0776 24.3874 10.0776 24.1664V16.2498Z" fill="black" fill-opacity="0.5"/>
<mask id="mask3_635_1149" style="mask-type:luminance" maskUnits="userSpaceOnUse" x="10" y="15" width="2" height="11">
<path d="M10.0786 16.2506C10.0786 16.0296 10.1664 15.8176 10.3227 15.6613C10.479 15.505 10.6909 15.4172 10.9119 15.4172C11.133 15.4172 11.3449 15.505 11.5012 15.6613C11.6575 15.8176 11.7453 16.0296 11.7453 16.2506V24.1672C11.7453 24.3882 11.6575 24.6001 11.5012 24.7564C11.3449 24.9127 11.133 25.0005 10.9119 25.0005C10.6909 25.0005 10.479 24.9127 10.3227 24.7564C10.1664 24.6001 10.0786 24.3882 10.0786 24.1672V16.2506Z" fill="white"/>
</mask>
<g mask="url(#mask3_635_1149)">
<path d="M9.76807 16.2499C9.76807 15.9466 9.88853 15.6558 10.103 15.4413C10.3174 15.2269 10.6082 15.1064 10.9115 15.1064C11.2147 15.1064 11.5056 15.2269 11.72 15.4413C11.9344 15.6558 12.0549 15.9466 12.0549 16.2499H11.4347C11.4347 16.1111 11.3796 15.978 11.2815 15.8799C11.1833 15.7817 11.0503 15.7266 10.9115 15.7266C10.7727 15.7266 10.6396 15.7817 10.5415 15.8799C10.4433 15.978 10.3882 16.1111 10.3882 16.2499H9.76807ZM12.0549 24.1664C12.0549 24.4697 11.9344 24.7605 11.72 24.975C11.5056 25.1894 11.2147 25.3099 10.9115 25.3099C10.6082 25.3099 10.3174 25.1894 10.103 24.975C9.88853 24.7605 9.76807 24.4697 9.76807 24.1664H10.3882C10.3882 24.3052 10.4433 24.4383 10.5415 24.5364C10.6396 24.6346 10.7727 24.6897 10.9115 24.6897C11.0503 24.6897 11.1833 24.6346 11.2815 24.5364C11.3796 24.4383 11.4347 24.3052 11.4347 24.1664H12.0549ZM10.9115 25.3099C10.6082 25.3099 10.3174 25.1894 10.103 24.975C9.88853 24.7605 9.76807 24.4697 9.76807 24.1664V16.2499C9.76807 15.9466 9.88853 15.6558 10.103 15.4413C10.3174 15.2269 10.6082 15.1064 10.9115 15.1064V15.7266C10.7727 15.7266 10.6396 15.7817 10.5415 15.8799C10.4433 15.978 10.3882 16.1111 10.3882 16.2499V24.1664C10.3882 24.3052 10.4433 24.4383 10.5415 24.5364C10.6396 24.6346 10.7727 24.6897 10.9115 24.6897V25.3099ZM10.9115 15.1064C11.2147 15.1064 11.5056 15.2269 11.72 15.4413C11.9344 15.6558 12.0549 15.9466 12.0549 16.2499V24.1664C12.0549 24.4697 11.9344 24.7605 11.72 24.975C11.5056 25.1894 11.2147 25.3099 10.9115 25.3099V24.6897C11.0503 24.6897 11.1833 24.6346 11.2815 24.5364C11.3796 24.4383 11.4347 24.3052 11.4347 24.1664V16.2499C11.4347 16.1111 11.3796 15.978 11.2815 15.8799C11.1833 15.7817 11.0503 15.7266 10.9115 15.7266V15.1064Z" fill="#1B271D"/>
</g>
<path d="M15.3491 16.25C15.3491 15.6613 14.8719 15.1841 14.2832 15.1841C13.6945 15.1841 13.2173 15.6613 13.2173 16.25V24.1666C13.2173 24.7552 13.6945 25.2325 14.2832 25.2325C14.8719 25.2325 15.3491 24.7552 15.3491 24.1666V16.25Z" stroke="#19C77F" stroke-width="0.651163"/>
<path d="M13.4507 16.2498C13.4507 16.0288 13.5385 15.8169 13.6948 15.6606C13.851 15.5043 14.063 15.4165 14.284 15.4165C14.505 15.4165 14.717 15.5043 14.8733 15.6606C15.0296 15.8169 15.1174 16.0288 15.1174 16.2498V24.1664C15.1174 24.3874 15.0296 24.5994 14.8733 24.7557C14.717 24.912 14.505 24.9998 14.284 24.9998C14.063 24.9998 13.851 24.912 13.6948 24.7557C13.5385 24.5994 13.4507 24.3874 13.4507 24.1664V16.2498Z" fill="black" fill-opacity="0.5"/>
<mask id="mask4_635_1149" style="mask-type:luminance" maskUnits="userSpaceOnUse" x="13" y="15" width="3" height="11">
<path d="M13.4507 16.2506C13.4507 16.0296 13.5385 15.8176 13.6948 15.6613C13.851 15.505 14.063 15.4172 14.284 15.4172C14.505 15.4172 14.717 15.505 14.8733 15.6613C15.0296 15.8176 15.1174 16.0296 15.1174 16.2506V24.1672C15.1174 24.3882 15.0296 24.6001 14.8733 24.7564C14.717 24.9127 14.505 25.0005 14.284 25.0005C14.063 25.0005 13.851 24.9127 13.6948 24.7564C13.5385 24.6001 13.4507 24.3882 13.4507 24.1672V16.2506Z" fill="white"/>
</mask>
<g mask="url(#mask4_635_1149)">
<path d="M13.1401 16.2499C13.1401 15.9466 13.2606 15.6558 13.475 15.4413C13.6895 15.2269 13.9803 15.1064 14.2835 15.1064C14.5868 15.1064 14.8776 15.2269 15.0921 15.4413C15.3065 15.6558 15.427 15.9466 15.427 16.2499H14.8068C14.8068 16.1111 14.7517 15.978 14.6535 15.8799C14.5554 15.7817 14.4223 15.7266 14.2835 15.7266C14.1448 15.7266 14.0117 15.7817 13.9136 15.8799C13.8154 15.978 13.7603 16.1111 13.7603 16.2499H13.1401ZM15.427 24.1664C15.427 24.4697 15.3065 24.7605 15.0921 24.975C14.8776 25.1894 14.5868 25.3099 14.2835 25.3099C13.9803 25.3099 13.6895 25.1894 13.475 24.975C13.2606 24.7605 13.1401 24.4697 13.1401 24.1664H13.7603C13.7603 24.3052 13.8154 24.4383 13.9136 24.5364C14.0117 24.6346 14.1448 24.6897 14.2835 24.6897C14.4223 24.6897 14.5554 24.6346 14.6535 24.5364C14.7517 24.4383 14.8068 24.3052 14.8068 24.1664H15.427ZM14.2835 25.3099C13.9803 25.3099 13.6895 25.1894 13.475 24.975C13.2606 24.7605 13.1401 24.4697 13.1401 24.1664V16.2499C13.1401 15.9466 13.2606 15.6558 13.475 15.4413C13.6895 15.2269 13.9803 15.1064 14.2835 15.1064V15.7266C14.1448 15.7266 14.0117 15.7817 13.9136 15.8799C13.8154 15.978 13.7603 16.1111 13.7603 16.2499V24.1664C13.7603 24.3052 13.8154 24.4383 13.9136 24.5364C14.0117 24.6346 14.1448 24.6897 14.2835 24.6897V25.3099ZM14.2835 15.1064C14.5868 15.1064 14.8776 15.2269 15.0921 15.4413C15.3065 15.6558 15.427 15.9466 15.427 16.2499V24.1664C15.427 24.4697 15.3065 24.7605 15.0921 24.975C14.8776 25.1894 14.5868 25.3099 14.2835 25.3099V24.6897C14.4223 24.6897 14.5554 24.6346 14.6535 24.5364C14.7517 24.4383 14.8068 24.3052 14.8068 24.1664V16.2499C14.8068 16.1111 14.7517 15.978 14.6535 15.8799C14.5554 15.7817 14.4223 15.7266 14.2835 15.7266V15.1064Z" fill="#1B271D"/>
</g>
<path d="M35.6261 20.2083C35.6261 18.3674 34.1338 16.875 32.2928 16.875C30.4519 16.875 28.9595 18.3674 28.9595 20.2083C28.9595 22.0493 30.4519 23.5417 32.2928 23.5417C34.1338 23.5417 35.6261 22.0493 35.6261 20.2083Z" fill="#303030" stroke="#19C77F" stroke-width="0.583442"/>
<path d="M30.4165 20.2084C30.4165 19.1729 31.256 18.3335 32.2915 18.3335C33.327 18.3335 34.1666 19.1729 34.1666 20.2084C34.1666 21.2439 33.327 22.0834 32.2915 22.0834C31.256 22.0834 30.4165 21.2439 30.4165 20.2084Z" fill="#83FF49"/>
<mask id="mask5_635_1149" style="mask-type:luminance" maskUnits="userSpaceOnUse" x="30" y="18" width="5" height="5">
<path d="M30.4175 20.2076C30.4175 19.1721 31.257 18.3328 32.2925 18.3328C33.328 18.3328 34.1676 19.1721 34.1676 20.2076C34.1676 21.2432 33.328 22.0827 32.2925 22.0827C31.257 22.0827 30.4175 21.2432 30.4175 20.2076Z" fill="white"/>
</mask>
<g mask="url(#mask5_635_1149)">
<path d="M30.1069 20.2077C30.1069 19.0008 31.0852 18.0227 32.2921 18.0227C33.4989 18.0227 34.4772 19.0008 34.4772 20.2077H33.857C33.857 19.3435 33.1564 18.6429 32.2921 18.6429C31.4277 18.6429 30.7271 19.3435 30.7271 20.2077H30.1069ZM34.4772 20.2077C34.4772 21.4145 33.4989 22.3928 32.2921 22.3928C31.0852 22.3928 30.1069 21.4145 30.1069 20.2077H30.7271C30.7271 21.072 31.4277 21.7726 32.2921 21.7726C33.1564 21.7726 33.857 21.072 33.857 20.2077H34.4772ZM32.2921 22.3928C31.0852 22.3928 30.1069 21.4145 30.1069 20.2077C30.1069 19.0008 31.0852 18.0227 32.2921 18.0227V18.6429C31.4277 18.6429 30.7271 19.3435 30.7271 20.2077C30.7271 21.072 31.4277 21.7726 32.2921 21.7726V22.3928ZM32.2921 18.0227C33.4989 18.0227 34.4772 19.0008 34.4772 20.2077C34.4772 21.4145 33.4989 22.3928 32.2921 22.3928V21.7726C33.1564 21.7726 33.857 21.072 33.857 20.2077C33.857 19.3435 33.1564 18.6429 32.2921 18.6429V18.0227Z" fill="#00A05E"/>
</g>
<path d="M0.000488281 10.8523H39.5837" stroke="#00804B" stroke-width="1.16667" stroke-linecap="round"/>
<path fill-rule="evenodd" clip-rule="evenodd" d="M0.0239258 28.6628V31.3757C0.0239258 36.1707 3.91106 40.0579 8.7061 40.0579H31.3418C36.1368 40.0579 40.0239 36.1707 40.0239 31.3757V28.6628C40.0239 33.4579 36.1368 37.345 31.3418 37.345H8.7061C3.91106 37.345 0.0239258 33.4579 0.0239258 28.6628Z" fill="black" fill-opacity="0.2"/>
<path fill-rule="evenodd" clip-rule="evenodd" d="M8.7061 0.0578613C3.91106 0.0578613 0.0239258 3.94499 0.0239258 8.74003V8.96887C0.492763 4.61631 4.17834 1.22732 8.65571 1.22732H31.3418C36.1368 1.22732 40.0239 5.11445 40.0239 9.90949V8.74003C40.0239 3.94499 36.1368 0.0578613 31.3418 0.0578613H8.7061Z" fill="white" fill-opacity="0.3"/>
</g>
</svg>
