<svg width="32" height="32" viewBox="0 0 32 32" fill="none" xmlns="http://www.w3.org/2000/svg">
<path d="M17.7305 25C17.5547 25.3031 17.3023 25.5547 16.9987 25.7295C16.6951 25.9044 16.3509 25.9965 16.0005 25.9965C15.6501 25.9965 15.3059 25.9044 15.0023 25.7295C14.6986 25.5547 14.4463 25.3031 14.2705 25M22.0005 12C22.0005 10.4087 21.3683 8.88258 20.2431 7.75736C19.1179 6.63214 17.5918 6 16.0005 6C14.4092 6 12.8831 6.63214 11.7578 7.75736C10.6326 8.88258 10.0005 10.4087 10.0005 12C10.0005 19 7.00049 21 7.00049 21H25.0005C25.0005 21 22.0005 19 22.0005 12Z" stroke="#999999" stroke-width="2" stroke-linecap="round" stroke-linejoin="round"/>
</svg>
