<svg width="24" height="24" viewBox="0 0 24 24" fill="none" xmlns="http://www.w3.org/2000/svg">
<path d="M21.0477 7.8967V21.0349C21.0477 22.2583 20.056 23.25 18.8326 23.25H5.17216C3.94877 23.25 2.95703 22.2583 2.95703 21.0349V2.96513C2.95698 1.74173 3.94872 0.75 5.17216 0.75H14.3216L21.0477 7.8967Z" fill="#E5252A"/>
<path d="M21.0465 7.8967H15.7971C14.9815 7.8967 14.3203 7.23553 14.3203 6.41995V0.75L21.0465 7.8967Z" fill="#ED676A"/>
<path d="M7.67612 16.5508V18.0478H6.61328V13.6377H8.37269C8.71014 13.6377 9.00869 13.6997 9.26828 13.8237C9.52787 13.9478 9.72831 14.1251 9.87109 14.3545C10.0124 14.5838 10.0845 14.8434 10.0845 15.1346C10.0845 15.5644 9.9302 15.9077 9.62158 16.1658C9.31441 16.4225 8.89183 16.5508 8.35394 16.5508H7.67612ZM7.67612 15.7302H8.37269C8.57894 15.7302 8.73611 15.6798 8.84425 15.5759C8.95239 15.4736 9.00578 15.3279 9.00578 15.1404C9.00578 14.9342 8.94953 14.7698 8.83848 14.6457C8.72744 14.5232 8.57603 14.4611 8.38422 14.4582H7.67612V15.7302ZM10.6498 18.0478V13.6377H12.0703C12.4597 13.6377 12.8102 13.7257 13.1216 13.9031C13.4317 14.079 13.6754 14.3285 13.8499 14.6516C14.0245 14.9732 14.1124 15.3337 14.1138 15.7331V15.9365C14.1138 16.3403 14.0288 16.7023 13.8586 17.0224C13.6884 17.3426 13.4476 17.5921 13.1375 17.7738C12.8274 17.9541 12.4813 18.0449 12.1006 18.0478H10.6498V18.0478ZM11.7127 14.4583V17.2301H12.0819C12.3876 17.2301 12.6212 17.122 12.7842 16.9042C12.9486 16.6879 13.0308 16.3648 13.0308 15.9365V15.7461C13.0308 15.3192 12.9486 14.9991 12.7842 14.7828C12.6212 14.5664 12.3833 14.4583 12.0704 14.4583H11.7127ZM17.4381 16.2912H15.7233V18.0478H14.6605V13.6377H17.6097V14.4583H15.7233V15.4736H17.4381V16.2912Z" fill="white"/>
</svg>
