<svg width="20" height="24" viewBox="0 0 20 24" fill="none" xmlns="http://www.w3.org/2000/svg">
<path d="M19.0477 7.8967V21.0349C19.0477 22.2583 18.056 23.25 16.8326 23.25H3.17216C1.94877 23.25 0.957031 22.2583 0.957031 21.0349V2.96513C0.956984 1.74173 1.94872 0.75 3.17216 0.75H12.3216L19.0477 7.8967Z" fill="#E5252A"/>
<path d="M19.0465 7.8967H13.7971C12.9815 7.8967 12.3203 7.23553 12.3203 6.41995V0.75L19.0465 7.8967Z" fill="#ED676A"/>
<path d="M5.67612 16.5508V18.0478H4.61328V13.6377H6.37269C6.71014 13.6377 7.00869 13.6997 7.26828 13.8237C7.52787 13.9478 7.72831 14.1251 7.87109 14.3545C8.01242 14.5838 8.08452 14.8434 8.08452 15.1346C8.08452 15.5644 7.9302 15.9077 7.62158 16.1658C7.31441 16.4225 6.89183 16.5508 6.35394 16.5508H5.67612ZM5.67612 15.7302H6.37269C6.57894 15.7302 6.73611 15.6798 6.84425 15.5759C6.95239 15.4736 7.00578 15.3279 7.00578 15.1404C7.00578 14.9342 6.94953 14.7698 6.83848 14.6457C6.72744 14.5232 6.57603 14.4611 6.38422 14.4582H5.67612V15.7302ZM8.64983 18.0478V13.6377H10.0703C10.4597 13.6377 10.8102 13.7257 11.1216 13.9031C11.4317 14.079 11.6754 14.3285 11.8499 14.6516C12.0245 14.9732 12.1124 15.3337 12.1138 15.7331V15.9365C12.1138 16.3403 12.0288 16.7023 11.8586 17.0224C11.6884 17.3426 11.4476 17.5921 11.1375 17.7738C10.8274 17.9541 10.4813 18.0449 10.1006 18.0478H8.64983V18.0478ZM9.71272 14.4583V17.2301H10.0819C10.3876 17.2301 10.6212 17.122 10.7842 16.9042C10.9486 16.6879 11.0308 16.3648 11.0308 15.9365V15.7461C11.0308 15.3192 10.9486 14.9991 10.7842 14.7828C10.6212 14.5664 10.3833 14.4583 10.0704 14.4583H9.71272ZM15.4381 16.2912H13.7233V18.0478H12.6605V13.6377H15.6097V14.4583H13.7233V15.4736H15.4381V16.2912Z" fill="white"/>
</svg>
