<svg width="32" height="32" viewBox="0 0 32 32" fill="none" xmlns="http://www.w3.org/2000/svg">
<circle cx="16" cy="16" r="16" fill="#D6D2C9"/>
<path d="M6.87604 22.1155C6.92198 21.702 6.94496 21.4952 7.00751 21.302C7.06301 21.1305 7.14143 20.9674 7.24064 20.8169C7.35246 20.6474 7.49955 20.5003 7.79373 20.2061L21 6.99981C22.1046 5.89524 23.8955 5.89525 25 6.99981C26.1046 8.10438 26.1046 9.89525 25 10.9998L11.7937 24.2061C11.4995 24.5003 11.3525 24.6474 11.1829 24.7592C11.0324 24.8584 10.8693 24.9368 10.6978 24.9923C10.5046 25.0549 10.2979 25.0778 9.88437 25.1238L6.5 25.4998L6.87604 22.1155Z" stroke="#0049FF" stroke-width="2" stroke-linecap="round" stroke-linejoin="round"/>
</svg>
