<svg width="32" height="32" viewBox="0 0 32 32" fill="none" xmlns="http://www.w3.org/2000/svg">
<rect width="32" height="32" rx="16" fill="#131514"/>
<g clip-path="url(#clip0_967_5859)">
<path d="M21.3335 9.99955C21.5086 9.82445 21.7165 9.68556 21.9452 9.5908C22.174 9.49604 22.4192 9.44727 22.6668 9.44727C22.9145 9.44727 23.1597 9.49604 23.3884 9.5908C23.6172 9.68556 23.8251 9.82445 24.0002 9.99955C24.1753 10.1746 24.3142 10.3825 24.4089 10.6113C24.5037 10.8401 24.5524 11.0853 24.5524 11.3329C24.5524 11.5805 24.5037 11.8257 24.4089 12.0545C24.3142 12.2833 24.1753 12.4911 24.0002 12.6662L15.0002 21.6662L11.3335 22.6662L12.3335 18.9995L21.3335 9.99955Z" stroke="#F8F8F8" stroke-width="2" stroke-linecap="round" stroke-linejoin="round"/>
</g>
<defs>
<clipPath id="clip0_967_5859">
<rect width="16" height="16" fill="white" transform="translate(10 8)"/>
</clipPath>
</defs>
</svg>
