<svg width="34" height="33" viewBox="0 0 34 33" fill="none" xmlns="http://www.w3.org/2000/svg">
<g filter="url(#filter0_b_10_8107)">
<rect x="0.71875" y="0.129395" width="32.53" height="32.53" rx="4.07" fill="#0049FF"/>
<path d="M11.6547 11.0488C11.3043 11.4574 11.1037 11.9833 11.1037 12.5375V20.2307C11.1037 20.785 11.3043 21.3109 11.6547 21.7195H10.1172C10.4675 21.3109 10.6682 20.785 10.6682 20.2307V12.5375C10.6682 11.9833 10.4675 11.4574 10.1172 11.0488H11.6547Z" stroke="white" stroke-width="1.52539"/>
<path d="M17.7562 11.0488C17.4059 11.4574 17.2052 11.9833 17.2052 12.5375V20.2307C17.2052 20.785 17.4059 21.3109 17.7562 21.7195H16.2188C16.5691 21.3109 16.7697 20.785 16.7697 20.2307V12.5375C16.7697 11.9833 16.5691 11.4574 16.2188 11.0488H17.7562Z" stroke="white" stroke-width="1.52539"/>
<path d="M23.85 11.0488C23.4996 11.4574 23.299 11.9833 23.299 12.5375V20.2307C23.299 20.785 23.4996 21.3109 23.85 21.7195H22.3125C22.6629 21.3109 22.8635 20.785 22.8635 20.2307V12.5375C22.8635 11.9833 22.6629 11.4574 22.3125 11.0488H23.85Z" stroke="white" stroke-width="1.52539"/>
</g>
<defs>
<filter id="filter0_b_10_8107" x="-3.28125" y="-3.87061" width="40.5303" height="40.5298" filterUnits="userSpaceOnUse" color-interpolation-filters="sRGB">
<feFlood flood-opacity="0" result="BackgroundImageFix"/>
<feGaussianBlur in="BackgroundImageFix" stdDeviation="2"/>
<feComposite in2="SourceAlpha" operator="in" result="effect1_backgroundBlur_10_8107"/>
<feBlend mode="normal" in="SourceGraphic" in2="effect1_backgroundBlur_10_8107" result="shape"/>
</filter>
</defs>
</svg>
