<svg width="41" height="41" viewBox="0 0 41 41" fill="none" xmlns="http://www.w3.org/2000/svg">
<g filter="url(#filter0_d_290_1040)">
<path d="M2.98438 9C2.98438 4.58172 6.5661 1 10.9844 1H31.0008C35.4191 1 39.0008 4.58172 39.0008 9V29.0164C39.0008 33.4347 35.4191 37.0164 31.0008 37.0164H10.9844C6.56609 37.0164 2.98438 33.4347 2.98438 29.0164V9Z" fill="#1B1B1F"/>
<path d="M3.48438 9C3.48438 4.85786 6.84224 1.5 10.9844 1.5H31.0008C35.1429 1.5 38.5008 4.85786 38.5008 9V29.0164C38.5008 33.1586 35.1429 36.5164 31.0008 36.5164H10.9844C6.84224 36.5164 3.48438 33.1586 3.48438 29.0164V9Z" stroke="#222227"/>
<path d="M30.7669 27.6042L25.7927 22.63C27.1482 20.9722 27.8147 18.8568 27.6543 16.7213C27.4938 14.5859 26.5187 12.5938 24.9307 11.1571C23.3427 9.72043 21.2632 8.94908 19.1224 9.00261C16.9816 9.05614 14.9433 9.93044 13.4291 11.4447C11.9148 12.9589 11.0405 14.9973 10.987 17.138C10.9335 19.2788 11.7048 21.3583 13.1415 22.9463C14.5782 24.5344 16.5702 25.5094 18.7057 25.6699C20.8411 25.8303 22.9565 25.1639 24.6144 23.8083L29.5885 28.7825C29.7457 28.9343 29.9562 29.0183 30.1747 29.0164C30.3932 29.0145 30.6022 28.9269 30.7567 28.7724C30.9112 28.6179 30.9989 28.4088 31.0008 28.1903C31.0027 27.9718 30.9187 27.7613 30.7669 27.6042ZM19.3444 24.0267C18.0258 24.0267 16.7369 23.6357 15.6406 22.9031C14.5443 22.1706 13.6898 21.1294 13.1852 19.9112C12.6806 18.6931 12.5486 17.3526 12.8058 16.0594C13.063 14.7662 13.698 13.5783 14.6303 12.646C15.5627 11.7136 16.7506 11.0787 18.0438 10.8214C19.337 10.5642 20.6774 10.6962 21.8956 11.2008C23.1138 11.7054 24.155 12.5599 24.8875 13.6562C25.6201 14.7525 26.0111 16.0415 26.0111 17.36C26.0091 19.1275 25.306 20.822 24.0562 22.0719C22.8064 23.3217 21.1119 24.0247 19.3444 24.0267Z" fill="#707070"/>
</g>
<defs>
<filter id="filter0_d_290_1040" x="0.984375" y="0" width="40.0156" height="40.0164" filterUnits="userSpaceOnUse" color-interpolation-filters="sRGB">
<feFlood flood-opacity="0" result="BackgroundImageFix"/>
<feColorMatrix in="SourceAlpha" type="matrix" values="0 0 0 0 0 0 0 0 0 0 0 0 0 0 0 0 0 0 127 0" result="hardAlpha"/>
<feOffset dy="1"/>
<feGaussianBlur stdDeviation="1"/>
<feColorMatrix type="matrix" values="0 0 0 0 0.0627451 0 0 0 0 0.0941176 0 0 0 0 0.156863 0 0 0 0.05 0"/>
<feBlend mode="normal" in2="BackgroundImageFix" result="effect1_dropShadow_290_1040"/>
<feBlend mode="normal" in="SourceGraphic" in2="effect1_dropShadow_290_1040" result="shape"/>
</filter>
</defs>
</svg>
