<svg width="40" height="40" viewBox="0 0 40 40" fill="none" xmlns="http://www.w3.org/2000/svg">
<g clip-path="url(#clip0_290_977)">
<path d="M19.9993 22.5C21.3801 22.5 22.4993 21.3807 22.4993 20C22.4993 18.6193 21.3801 17.5 19.9993 17.5C18.6186 17.5 17.4993 18.6193 17.4993 20C17.4993 21.3807 18.6186 22.5 19.9993 22.5Z" stroke="white" stroke-width="1.66667" stroke-linecap="round" stroke-linejoin="round"/>
<path d="M25.6054 22.2727C25.5046 22.5012 25.4745 22.7547 25.519 23.0005C25.5636 23.2462 25.6808 23.473 25.8554 23.6515L25.9009 23.697C26.0417 23.8377 26.1535 24.0048 26.2297 24.1887C26.306 24.3727 26.3452 24.5698 26.3452 24.769C26.3452 24.9681 26.306 25.1652 26.2297 25.3492C26.1535 25.5331 26.0417 25.7002 25.9009 25.8409C25.7601 25.9818 25.593 26.0936 25.4091 26.1698C25.2252 26.2461 25.028 26.2853 24.8289 26.2853C24.6298 26.2853 24.4326 26.2461 24.2487 26.1698C24.0647 26.0936 23.8976 25.9818 23.7569 25.8409L23.7115 25.7955C23.5329 25.6208 23.3062 25.5037 23.0604 25.4591C22.8146 25.4145 22.5612 25.4446 22.3327 25.5455C22.1086 25.6415 21.9175 25.801 21.7829 26.0042C21.6483 26.2075 21.5761 26.4456 21.5751 26.6894V26.8182C21.5751 27.22 21.4155 27.6054 21.1313 27.8896C20.8472 28.1737 20.4618 28.3334 20.06 28.3334C19.6581 28.3334 19.2727 28.1737 18.9886 27.8896C18.7044 27.6054 18.5448 27.22 18.5448 26.8182V26.75C18.5389 26.4993 18.4578 26.2561 18.3119 26.0521C18.1659 25.8481 17.962 25.6927 17.7266 25.6061C17.4981 25.5052 17.2447 25.4752 16.9989 25.5197C16.7531 25.5643 16.5264 25.6814 16.3478 25.8561L16.3024 25.9015C16.1617 26.0424 15.9946 26.1542 15.8106 26.2304C15.6267 26.3067 15.4295 26.3459 15.2304 26.3459C15.0313 26.3459 14.8341 26.3067 14.6502 26.2304C14.4663 26.1542 14.2992 26.0424 14.1584 25.9015C14.0176 25.7608 13.9058 25.5937 13.8296 25.4098C13.7533 25.2258 13.7141 25.0287 13.7141 24.8296C13.7141 24.6305 13.7533 24.4333 13.8296 24.2494C13.9058 24.0654 14.0176 23.8983 14.1584 23.7576L14.2039 23.7121C14.3785 23.5336 14.4957 23.3068 14.5403 23.0611C14.5848 22.8153 14.5547 22.5619 14.4539 22.3334C14.3579 22.1093 14.1984 21.9182 13.9952 21.7836C13.7919 21.649 13.5537 21.5768 13.31 21.5758H13.1812C12.7793 21.5758 12.3939 21.4161 12.1098 21.132C11.8256 20.8479 11.666 20.4625 11.666 20.0606C11.666 19.6588 11.8256 19.2734 12.1098 18.9893C12.3939 18.7051 12.7793 18.5455 13.1812 18.5455H13.2493C13.5001 18.5396 13.7433 18.4584 13.9473 18.3125C14.1513 18.1666 14.3067 17.9627 14.3933 17.7273C14.4941 17.4988 14.5242 17.2453 14.4797 16.9996C14.4351 16.7538 14.3179 16.5271 14.1433 16.3485L14.0978 16.3031C13.957 16.1623 13.8452 15.9952 13.769 15.8113C13.6927 15.6274 13.6535 15.4302 13.6535 15.2311C13.6535 15.032 13.6927 14.8348 13.769 14.6509C13.8452 14.4669 13.957 14.2998 14.0978 14.1591C14.2386 14.0182 14.4057 13.9065 14.5896 13.8302C14.7735 13.754 14.9707 13.7147 15.1698 13.7147C15.3689 13.7147 15.5661 13.754 15.75 13.8302C15.934 13.9065 16.1011 14.0182 16.2418 14.1591L16.2872 14.2046C16.4658 14.3792 16.6925 14.4964 16.9383 14.5409C17.1841 14.5855 17.4375 14.5554 17.666 14.4546H17.7266C17.9507 14.3585 18.1418 14.1991 18.2764 13.9958C18.411 13.7926 18.4832 13.5544 18.4842 13.3106V13.1818C18.4842 12.78 18.6438 12.3946 18.928 12.1105C19.2121 11.8263 19.5975 11.6667 19.9993 11.6667C20.4012 11.6667 20.7866 11.8263 21.0707 12.1105C21.3549 12.3946 21.5145 12.78 21.5145 13.1818V13.25C21.5155 13.4938 21.5877 13.732 21.7223 13.9352C21.8569 14.1385 22.048 14.2979 22.2721 14.394C22.5006 14.4948 22.754 14.5249 22.9998 14.4803C23.2455 14.4358 23.4723 14.3186 23.6509 14.144L23.6963 14.0985C23.837 13.9576 24.0041 13.8459 24.1881 13.7696C24.372 13.6934 24.5692 13.6541 24.7683 13.6541C24.9674 13.6541 25.1646 13.6934 25.3485 13.7696C25.5324 13.8459 25.6995 13.9576 25.8403 14.0985C25.9811 14.2392 26.0929 14.4063 26.1691 14.5903C26.2454 14.7742 26.2846 14.9714 26.2846 15.1705C26.2846 15.3696 26.2454 15.5668 26.1691 15.7507C26.0929 15.9346 25.9811 16.1017 25.8403 16.2424L25.7948 16.2879C25.6202 16.4664 25.503 16.6932 25.4584 16.939C25.4139 17.1847 25.444 17.4382 25.5448 17.6667V17.7273C25.6408 17.9514 25.8003 18.1425 26.0035 18.2771C26.2068 18.4117 26.445 18.4839 26.6887 18.4849H26.8175C27.2194 18.4849 27.6048 18.6445 27.8889 18.9286C28.1731 19.2128 28.3327 19.5982 28.3327 20C28.3327 20.4019 28.1731 20.7872 27.8889 21.0714C27.6048 21.3555 27.2194 21.5152 26.8175 21.5152H26.7493C26.5056 21.5161 26.2674 21.5884 26.0641 21.723C25.8609 21.8576 25.7014 22.0487 25.6054 22.2727Z" stroke="white" stroke-width="1.66667" stroke-linecap="round" stroke-linejoin="round"/>
</g>
<defs>
<clipPath id="clip0_290_977">
<rect width="20" height="20" fill="white" transform="translate(10 10)"/>
</clipPath>
</defs>
</svg>
