<svg width="32" height="32" viewBox="0 0 32 32" fill="none" xmlns="http://www.w3.org/2000/svg">
<g clip-path="url(#clip0_3612_2103)">
<path d="M16.0005 19C17.6573 19 19.0005 17.6569 19.0005 16C19.0005 14.3431 17.6573 13 16.0005 13C14.3436 13 13.0005 14.3431 13.0005 16C13.0005 17.6569 14.3436 19 16.0005 19Z" stroke="#999999" stroke-width="2" stroke-linecap="round" stroke-linejoin="round"/>
<path d="M23.4005 19C23.2674 19.3016 23.2277 19.6362 23.2865 19.9606C23.3453 20.285 23.5 20.5843 23.7305 20.82L23.7905 20.88C23.9764 21.0657 24.124 21.2863 24.2246 21.5291C24.3253 21.7719 24.3771 22.0322 24.3771 22.295C24.3771 22.5578 24.3253 22.8181 24.2246 23.0609C24.124 23.3037 23.9764 23.5243 23.7905 23.71C23.6047 23.896 23.3842 24.0435 23.1414 24.1441C22.8986 24.2448 22.6383 24.2966 22.3755 24.2966C22.1127 24.2966 21.8524 24.2448 21.6096 24.1441C21.3668 24.0435 21.1462 23.896 20.9605 23.71L20.9005 23.65C20.6648 23.4195 20.3655 23.2648 20.0411 23.206C19.7167 23.1472 19.3821 23.1869 19.0805 23.32C18.7847 23.4468 18.5325 23.6572 18.3548 23.9255C18.1771 24.1938 18.0818 24.5082 18.0805 24.83V25C18.0805 25.5304 17.8698 26.0391 17.4947 26.4142C17.1196 26.7893 16.6109 27 16.0805 27C15.5501 27 15.0413 26.7893 14.6663 26.4142C14.2912 26.0391 14.0805 25.5304 14.0805 25V24.91C14.0727 24.579 13.9656 24.258 13.773 23.9887C13.5804 23.7194 13.3112 23.5143 13.0005 23.4C12.6989 23.2669 12.3643 23.2272 12.0399 23.286C11.7155 23.3448 11.4162 23.4995 11.1805 23.73L11.1205 23.79C10.9347 23.976 10.7142 24.1235 10.4714 24.2241C10.2286 24.3248 9.96832 24.3766 9.70549 24.3766C9.44266 24.3766 9.1824 24.3248 8.93961 24.2241C8.69681 24.1235 8.47623 23.976 8.29049 23.79C8.10454 23.6043 7.95702 23.3837 7.85637 23.1409C7.75572 22.8981 7.70391 22.6378 7.70391 22.375C7.70391 22.1122 7.75572 21.8519 7.85637 21.6091C7.95702 21.3663 8.10454 21.1457 8.29049 20.96L8.35049 20.9C8.58103 20.6643 8.73567 20.365 8.79449 20.0406C8.85331 19.7162 8.8136 19.3816 8.68049 19.08C8.55373 18.7842 8.34324 18.532 8.07495 18.3543C7.80666 18.1766 7.49227 18.0813 7.17049 18.08H7.00049C6.47006 18.08 5.96135 17.8693 5.58627 17.4942C5.2112 17.1191 5.00049 16.6104 5.00049 16.08C5.00049 15.5496 5.2112 15.0409 5.58627 14.6658C5.96135 14.2907 6.47006 14.08 7.00049 14.08H7.09049C7.42148 14.0723 7.74249 13.9651 8.01179 13.7725C8.28108 13.5799 8.4862 13.3107 8.60049 13C8.7336 12.6984 8.77331 12.3638 8.71449 12.0394C8.65567 11.715 8.50103 11.4157 8.27049 11.18L8.21049 11.12C8.02454 10.9343 7.87702 10.7137 7.77637 10.4709C7.67572 10.2281 7.62391 9.96783 7.62391 9.705C7.62391 9.44217 7.67572 9.18192 7.77637 8.93912C7.87702 8.69632 8.02454 8.47575 8.21049 8.29C8.39623 8.10405 8.61681 7.95653 8.85961 7.85588C9.1024 7.75523 9.36266 7.70343 9.62549 7.70343C9.88832 7.70343 10.1486 7.75523 10.3914 7.85588C10.6342 7.95653 10.8547 8.10405 11.0405 8.29L11.1005 8.35C11.3362 8.58054 11.6355 8.73519 11.9599 8.794C12.2843 8.85282 12.6189 8.81312 12.9205 8.68H13.0005C13.2963 8.55324 13.5485 8.34276 13.7262 8.07447C13.9039 7.80618 13.9992 7.49179 14.0005 7.17V7C14.0005 6.46957 14.2112 5.96086 14.5863 5.58579C14.9613 5.21071 15.4701 5 16.0005 5C16.5309 5 17.0396 5.21071 17.4147 5.58579C17.7898 5.96086 18.0005 6.46957 18.0005 7V7.09C18.0018 7.41179 18.0971 7.72618 18.2748 7.99447C18.4525 8.26276 18.7047 8.47324 19.0005 8.6C19.3021 8.73312 19.6367 8.77282 19.9611 8.714C20.2855 8.65519 20.5848 8.50054 20.8205 8.27L20.8805 8.21C21.0662 8.02405 21.2868 7.87653 21.5296 7.77588C21.7724 7.67523 22.0327 7.62343 22.2955 7.62343C22.5583 7.62343 22.8186 7.67523 23.0614 7.77588C23.3042 7.87653 23.5247 8.02405 23.7105 8.21C23.8964 8.39575 24.044 8.61632 24.1446 8.85912C24.2453 9.10192 24.2971 9.36217 24.2971 9.625C24.2971 9.88783 24.2453 10.1481 24.1446 10.3909C24.044 10.6337 23.8964 10.8543 23.7105 11.04L23.6505 11.1C23.42 11.3357 23.2653 11.635 23.2065 11.9594C23.1477 12.2838 23.1874 12.6184 23.3205 12.92V13C23.4473 13.2958 23.6577 13.548 23.926 13.7257C24.1943 13.9034 24.5087 13.9987 24.8305 14H25.0005C25.5309 14 26.0396 14.2107 26.4147 14.5858C26.7898 14.9609 27.0005 15.4696 27.0005 16C27.0005 16.5304 26.7898 17.0391 26.4147 17.4142C26.0396 17.7893 25.5309 18 25.0005 18H24.9105C24.5887 18.0013 24.2743 18.0966 24.006 18.2743C23.7377 18.452 23.5273 18.7042 23.4005 19Z" stroke="#999999" stroke-width="2" stroke-linecap="round" stroke-linejoin="round"/>
</g>
<defs>
<clipPath id="clip0_3612_2103">
<rect width="24" height="24" fill="white" transform="translate(4.00049 4)"/>
</clipPath>
</defs>
</svg>
