<svg width="56" height="56" viewBox="0 0 56 56" fill="none" xmlns="http://www.w3.org/2000/svg">
<circle cx="28" cy="28" r="28" fill="#FF6314"/>
<g clip-path="url(#clip0_290_1007)">
<path d="M27.9629 16.7031C34.202 16.7031 39.2598 21.7609 39.2598 28C39.2598 34.2391 34.202 39.2969 27.9629 39.2969" stroke="white" stroke-width="1.40625" stroke-miterlimit="10" stroke-linecap="round" stroke-linejoin="round"/>
<path d="M27.9629 20.9395V28L33.6113 33.6484" stroke="white" stroke-width="1.40625" stroke-miterlimit="10" stroke-linecap="round" stroke-linejoin="round"/>
<path d="M23.8773 17.4651C23.8773 17.4651 24.1498 17.356 24.4509 17.2619C24.752 17.1678 25.1011 17.0692 25.1011 17.0692M20.4466 19.5631C20.4466 19.5631 20.6637 19.3654 20.9128 19.1719C21.1619 18.9783 21.4544 18.7637 21.4544 18.7637M17.9679 22.7296C17.9679 22.7296 18.102 22.4685 18.2676 22.2C18.4331 21.9314 18.6319 21.6279 18.6319 21.6279M16.7551 26.5637C16.7551 26.5637 16.7893 26.2721 16.8503 25.9626C16.9113 25.6532 16.9912 25.2992 16.9912 25.2992M16.9619 30.5797C16.9619 30.5797 16.8918 30.2946 16.8405 29.9834C16.7893 29.6721 16.7402 29.3126 16.7402 29.3126M18.562 34.2689C18.562 34.2689 18.3965 34.0265 18.2395 33.7529C18.0825 33.4793 17.9106 33.1597 17.9106 33.1597M21.3527 37.1642C21.3527 37.1642 21.1128 36.9951 20.8699 36.7938C20.627 36.5925 20.3542 36.3534 20.3542 36.3534M24.9807 38.8988C24.9807 38.8988 24.6968 38.8244 24.3988 38.7209C24.1008 38.6174 23.7614 38.489 23.7614 38.489" stroke="white" stroke-width="1.40625" stroke-miterlimit="10" stroke-linecap="round" stroke-linejoin="round" stroke-dasharray="1.41 2.67"/>
</g>
<defs>
<clipPath id="clip0_290_1007">
<rect width="24" height="24" fill="white" transform="translate(16 16)"/>
</clipPath>
</defs>
</svg>
