<svg width="26" height="22" viewBox="0 0 26 22" fill="none" xmlns="http://www.w3.org/2000/svg">
<path d="M22.6287 5.92299C22.6445 6.14439 22.6445 6.36585 22.6445 6.58725C22.6445 13.3404 17.5046 21.1215 8.11027 21.1215C5.21605 21.1215 2.52747 20.2833 0.265869 18.8283C0.677082 18.8757 1.07243 18.8916 1.49946 18.8916C3.88753 18.8916 6.08589 18.085 7.8414 16.7091C5.59562 16.6616 3.71359 15.1908 3.06516 13.1664C3.38149 13.2138 3.69777 13.2455 4.02993 13.2455C4.48856 13.2455 4.94723 13.1822 5.37422 13.0715C3.03356 12.597 1.27801 10.5411 1.27801 8.05807V7.99483C1.95804 8.3744 2.74887 8.61162 3.58702 8.64322C2.21109 7.72591 1.30965 6.16022 1.30965 4.38889C1.30965 3.43999 1.56265 2.57015 2.0055 1.81101C4.52015 4.91081 8.30003 6.93513 12.5385 7.15658C12.4594 6.77701 12.412 6.38167 12.412 5.98628C12.412 3.17112 14.6894 0.87793 17.5203 0.87793C18.9911 0.87793 20.3196 1.49472 21.2527 2.49109C22.4072 2.26969 23.5143 1.84265 24.4949 1.2575C24.1153 2.44367 23.3087 3.44004 22.2491 4.07261C23.2771 3.96195 24.2735 3.67722 25.1907 3.28187C24.495 4.29401 23.6251 5.19545 22.6287 5.92299V5.92299Z" fill="white"/>
</svg>
