<svg width="30" height="30" viewBox="0 0 30 30" fill="none" xmlns="http://www.w3.org/2000/svg">
<path d="M14.3358 15.3258C18.3859 15.3258 21.6691 12.0426 21.6691 7.99251C21.6691 3.94242 18.3859 0.65918 14.3358 0.65918C10.2857 0.65918 7.00244 3.94242 7.00244 7.99251C7.00244 12.0426 10.2857 15.3258 14.3358 15.3258Z" fill="#0049FF"/>
<circle cx="23.9971" cy="20.999" r="3" fill="white"/>
<path fill-rule="evenodd" clip-rule="evenodd" d="M14.0023 28.0085V25.2685C14.0023 24.6485 14.2476 24.0551 14.6863 23.6178L17.3396 20.9645C17.272 19.4879 17.698 18.0308 18.5503 16.8231C17.1576 16.5892 15.7478 16.4728 14.3356 16.4751C9.90628 16.4751 5.98495 17.5831 3.55028 19.2431C1.69295 20.5098 0.668949 22.1191 0.668949 23.8085V25.7418C0.668422 26.0396 0.726691 26.3346 0.840415 26.6098C0.954139 26.8851 1.12108 27.1352 1.33167 27.3457C1.54225 27.5563 1.79233 27.7233 2.06758 27.837C2.34282 27.9507 2.6378 28.009 2.93562 28.0085H14.0023Z" fill="#0049FF"/>
<path fill-rule="evenodd" clip-rule="evenodd" d="M23.2048 25.9445C24.1064 26.0811 25.028 25.9845 25.8816 25.6638C26.7353 25.3431 27.4925 24.8091 28.0811 24.1126C28.6698 23.4161 29.0701 22.5804 29.244 21.6853C29.4179 20.7901 29.3596 19.8653 29.0745 18.9991C28.7895 18.1329 28.2873 17.3542 27.6158 16.7372C26.9443 16.1202 26.1259 15.6856 25.2388 15.4747C24.3516 15.2639 23.4252 15.2838 22.5479 15.5327C21.6706 15.7816 20.8717 16.2511 20.2274 16.8965C19.6363 17.487 19.1923 18.2082 18.9313 19.002C18.6703 19.7957 18.5995 20.6397 18.7248 21.4658L15.6288 24.5605C15.5357 24.6534 15.4619 24.7638 15.4116 24.8853C15.3613 25.0067 15.3354 25.137 15.3354 25.2685V28.3338C15.3354 28.8858 15.7834 29.3338 16.3354 29.3338H19.4008C19.5323 29.3339 19.6625 29.308 19.784 29.2577C19.9055 29.2073 20.0159 29.1335 20.1088 29.0405L23.2048 25.9445ZM22.9781 21.6911C22.8387 21.5579 22.7273 21.3982 22.6505 21.2213C22.5737 21.0444 22.533 20.854 22.5309 20.6612C22.5288 20.4683 22.5652 20.277 22.6381 20.0985C22.7109 19.92 22.8188 19.7578 22.9552 19.6215C23.0917 19.4853 23.254 19.3777 23.4326 19.305C23.6112 19.2324 23.8026 19.1962 23.9954 19.1986C24.1882 19.201 24.3786 19.2419 24.5554 19.3189C24.7322 19.3959 24.8918 19.5075 25.0248 19.6471C25.2854 19.9206 25.4287 20.2853 25.424 20.663C25.4194 21.0408 25.2671 21.4018 24.9998 21.6688C24.7324 21.9357 24.3713 22.0875 23.9935 22.0917C23.6157 22.0959 23.2513 21.9521 22.9781 21.6911Z" fill="#0049FF"/>
</svg>
