<svg width="24" height="24" viewBox="0 0 24 24" fill="none" xmlns="http://www.w3.org/2000/svg">
<path d="M19.409 0.706055H4.58548C2.4396 0.706055 0.703125 2.44958 0.703125 4.58841V19.4119C0.703125 21.5508 2.4396 23.2943 4.58548 23.2943H19.409C21.5478 23.2943 23.2914 21.5508 23.2914 19.4119V4.58841C23.2914 2.44958 21.5478 0.706055 19.409 0.706055ZM9.17371 2.8237H10.2325C10.8114 2.8237 11.2914 3.29664 11.2914 3.88253C11.2914 4.46841 10.8114 4.94135 10.2325 4.94135H9.17371C8.58783 4.94135 8.11489 4.46841 8.11489 3.88253C8.11489 3.29664 8.58783 2.8237 9.17371 2.8237ZM15.2302 11.4284C15.4137 11.5625 15.5267 11.7743 15.5267 12.0002C15.5267 12.2331 15.4137 12.4449 15.2302 12.579L10.289 16.1084C10.1619 16.1931 10.0208 16.2355 9.8796 16.2355C9.76644 16.2383 9.65451 16.2116 9.55489 16.1578C9.43964 16.0984 9.34306 16.0083 9.2758 15.8974C9.20853 15.7865 9.17321 15.6593 9.17371 15.5296V8.47076C9.17371 8.20958 9.32195 7.96958 9.55489 7.84958C9.78783 7.72958 10.0702 7.7437 10.289 7.899L15.2302 11.4284ZM5.6443 21.1766H4.58548C3.9996 21.1766 3.52665 20.7037 3.52665 20.1178C3.52665 19.5319 3.9996 19.059 4.58548 19.059H5.6443C6.22312 19.059 6.70312 19.5319 6.70312 20.1178C6.70312 20.7037 6.22312 21.1766 5.6443 21.1766ZM5.6443 4.94135H4.58548C3.9996 4.94135 3.52665 4.46841 3.52665 3.88253C3.52665 3.29664 3.9996 2.8237 4.58548 2.8237H5.6443C6.22312 2.8237 6.70312 3.29664 6.70312 3.88253C6.70312 4.46841 6.22312 4.94135 5.6443 4.94135ZM10.2325 21.1766H9.17371C8.58783 21.1766 8.11489 20.7037 8.11489 20.1178C8.11489 19.5319 8.58783 19.059 9.17371 19.059H10.2325C10.8114 19.059 11.2914 19.5319 11.2914 20.1178C11.2914 20.7037 10.8114 21.1766 10.2325 21.1766ZM14.8208 21.1766H13.7619C13.1761 21.1766 12.7031 20.7037 12.7031 20.1178C12.7031 19.5319 13.1761 19.059 13.7619 19.059H14.8208C15.3996 19.059 15.8796 19.5319 15.8796 20.1178C15.8796 20.7037 15.3996 21.1766 14.8208 21.1766ZM14.8208 4.94135H13.7619C13.1761 4.94135 12.7031 4.46841 12.7031 3.88253C12.7031 3.29664 13.1761 2.8237 13.7619 2.8237H14.8208C15.3996 2.8237 15.8796 3.29664 15.8796 3.88253C15.8796 4.46841 15.3996 4.94135 14.8208 4.94135ZM19.409 21.1766H18.3502C17.7643 21.1766 17.2914 20.7037 17.2914 20.1178C17.2914 19.5319 17.7643 19.059 18.3502 19.059H19.409C19.9878 19.059 20.4678 19.5319 20.4678 20.1178C20.4678 20.7037 19.9878 21.1766 19.409 21.1766ZM19.409 4.94135H18.3502C17.7643 4.94135 17.2914 4.46841 17.2914 3.88253C17.2914 3.29664 17.7643 2.8237 18.3502 2.8237H19.409C19.9878 2.8237 20.4678 3.29664 20.4678 3.88253C20.4678 4.46841 19.9878 4.94135 19.409 4.94135Z" fill="#0C54FF"/>
</svg>
