<svg width="25" height="24" viewBox="0 0 25 24" fill="none" xmlns="http://www.w3.org/2000/svg">
<path d="M19.909 0.706055H5.08548C2.9396 0.706055 1.20312 2.44958 1.20312 4.58841V19.4119C1.20312 21.5508 2.9396 23.2943 5.08548 23.2943H19.909C22.0478 23.2943 23.7914 21.5508 23.7914 19.4119V4.58841C23.7914 2.44958 22.0478 0.706055 19.909 0.706055ZM9.67371 2.8237H10.7325C11.3114 2.8237 11.7914 3.29664 11.7914 3.88253C11.7914 4.46841 11.3114 4.94135 10.7325 4.94135H9.67371C9.08783 4.94135 8.61489 4.46841 8.61489 3.88253C8.61489 3.29664 9.08783 2.8237 9.67371 2.8237ZM15.7302 11.4284C15.9137 11.5625 16.0267 11.7743 16.0267 12.0002C16.0267 12.2331 15.9137 12.4449 15.7302 12.579L10.789 16.1084C10.6619 16.1931 10.5208 16.2355 10.3796 16.2355C10.2664 16.2383 10.1545 16.2116 10.0549 16.1578C9.93964 16.0984 9.84306 16.0083 9.7758 15.8974C9.70853 15.7865 9.67321 15.6593 9.67371 15.5296V8.47076C9.67371 8.20958 9.82195 7.96958 10.0549 7.84958C10.2878 7.72958 10.5702 7.7437 10.789 7.899L15.7302 11.4284ZM6.1443 21.1766H5.08548C4.4996 21.1766 4.02665 20.7037 4.02665 20.1178C4.02665 19.5319 4.4996 19.059 5.08548 19.059H6.1443C6.72312 19.059 7.20312 19.5319 7.20312 20.1178C7.20312 20.7037 6.72312 21.1766 6.1443 21.1766ZM6.1443 4.94135H5.08548C4.4996 4.94135 4.02665 4.46841 4.02665 3.88253C4.02665 3.29664 4.4996 2.8237 5.08548 2.8237H6.1443C6.72312 2.8237 7.20312 3.29664 7.20312 3.88253C7.20312 4.46841 6.72312 4.94135 6.1443 4.94135ZM10.7325 21.1766H9.67371C9.08783 21.1766 8.61489 20.7037 8.61489 20.1178C8.61489 19.5319 9.08783 19.059 9.67371 19.059H10.7325C11.3114 19.059 11.7914 19.5319 11.7914 20.1178C11.7914 20.7037 11.3114 21.1766 10.7325 21.1766ZM15.3208 21.1766H14.2619C13.6761 21.1766 13.2031 20.7037 13.2031 20.1178C13.2031 19.5319 13.6761 19.059 14.2619 19.059H15.3208C15.8996 19.059 16.3796 19.5319 16.3796 20.1178C16.3796 20.7037 15.8996 21.1766 15.3208 21.1766ZM15.3208 4.94135H14.2619C13.6761 4.94135 13.2031 4.46841 13.2031 3.88253C13.2031 3.29664 13.6761 2.8237 14.2619 2.8237H15.3208C15.8996 2.8237 16.3796 3.29664 16.3796 3.88253C16.3796 4.46841 15.8996 4.94135 15.3208 4.94135ZM19.909 21.1766H18.8502C18.2643 21.1766 17.7914 20.7037 17.7914 20.1178C17.7914 19.5319 18.2643 19.059 18.8502 19.059H19.909C20.4878 19.059 20.9678 19.5319 20.9678 20.1178C20.9678 20.7037 20.4878 21.1766 19.909 21.1766ZM19.909 4.94135H18.8502C18.2643 4.94135 17.7914 4.46841 17.7914 3.88253C17.7914 3.29664 18.2643 2.8237 18.8502 2.8237H19.909C20.4878 2.8237 20.9678 3.29664 20.9678 3.88253C20.9678 4.46841 20.4878 4.94135 19.909 4.94135Z" fill="#0C54FF"/>
</svg>
