<svg width="34" height="44" viewBox="0 0 34 44" fill="none" xmlns="http://www.w3.org/2000/svg">
<g id="Frame" clip-path="url(#clip0_10_367)">
<g id="Layer 8">
<path id="Path 17" d="M6.56847 13.8128V36.1242L0.489746 30.075V7.43359C3.17113 7.43359 4.69081 8.7821 5.54023 10.1306C6.22288 11.2367 6.5793 12.5131 6.56847 13.8128Z" fill="white" stroke="white" stroke-width="0.173777" stroke-miterlimit="10"/>
<path id="Path 18" d="M24.2615 8.66905C24.2614 8.95825 24.2446 9.2472 24.2111 9.53446C23.9991 11.3365 23.1329 12.9981 21.777 14.2039C20.421 15.4096 18.6696 16.0757 16.8551 16.0757C15.0406 16.0757 13.2892 15.4096 11.9333 14.2039C10.5773 12.9981 9.71116 11.3365 9.49913 9.53446C9.43193 8.95948 9.43193 8.37862 9.49913 7.80364C9.71921 5.92673 10.6484 4.20495 12.0965 2.99077C13.5446 1.77659 15.402 1.16188 17.2886 1.27247C19.1751 1.38306 20.948 2.2106 22.2443 3.58566C23.5406 4.96072 24.2622 6.77929 24.2615 8.66905Z" fill="white" stroke="white" stroke-width="0.173777" stroke-miterlimit="10"/>
<g id="Group 3">
<path id="Path 19" d="M27.1423 13.8135V36.125L33.2211 30.0758V7.43433C30.5397 7.43433 29.02 8.78284 28.1706 10.1313C27.4879 11.2374 27.1315 12.5138 27.1423 13.8135Z" fill="white" stroke="white" stroke-width="0.173777" stroke-miterlimit="10"/>
<path id="Path 20" d="M24.2127 26.2996V36.7158L16.8567 42.8606L9.50069 36.7158V26.2996C9.49129 24.9166 9.80802 23.5509 10.4252 22.3132C11.3601 20.4694 13.2161 18.457 16.8567 18.457C20.4973 18.457 22.3533 20.4694 23.2882 22.3132C23.9053 23.5509 24.2221 24.9166 24.2127 26.2996Z" fill="white" stroke="white" stroke-width="0.173777" stroke-miterlimit="10"/>
</g>
</g>
</g>
<defs>
<clipPath id="clip0_10_367">
<rect width="33.28" height="42.24" fill="white" transform="translate(0.319824 0.879883)"/>
</clipPath>
</defs>
</svg>
